<?xml version="1.0" encoding="UTF-8" standalone="no"?><svg xmlns="http://www.w3.org/2000/svg" xmlns:xlink="http://www.w3.org/1999/xlink" contentScriptType="application/ecmascript" contentStyleType="text/css" height="516px" preserveAspectRatio="none" style="width:690px;height:516px;" version="1.1" viewBox="0 0 690 516" width="690.4px" zoomAndPan="magnify"><defs><filter height="300%" id="f1hjjpvku6bn5x" width="300%" x="-1" y="-1"><feGaussianBlur result="blurOut" stdDeviation="1.600000023841858"/><feColorMatrix in="blurOut" result="blurOut2" type="matrix" values="0 0 0 0 0 0 0 0 0 0 0 0 0 0 0 0 0 0 .4 0"/><feOffset dx="3.200000047683716" dy="3.200000047683716" in="blurOut2" result="blurOut3"/><feBlend in="SourceGraphic" in2="blurOut3" mode="normal"/></filter></defs><g><!--class Iterable--><rect fill="#FEFECE" filter="url(#f1hjjpvku6bn5x)" height="43.0688" id="Iterable" style="stroke: #A80036; stroke-width: 1.2000000178813934;" width="103.2" x="341.6" y="6.4"/><ellipse cx="368.72" cy="19.2" fill="#B4A7E5" rx="8.8" ry="8.8" style="stroke: #A80036; stroke-width: 0.800000011920929;"/><path d="M369.52,16.8 L369.52,21.6 L371.12,21.6 L371.5075,21.6 L371.92,22.1 L371.92,22.4 L371.92,22.7 L371.5075,23.2 L371.12,23.2 L366.32,23.2 L365.9325,23.2 L365.52,22.7 L365.52,22.4 L365.52,22.1 L365.9325,21.6 L366.32,21.6 L367.92,21.6 L367.92,16.8 L366.32,16.8 L365.9325,16.8 L365.52,16.3 L365.52,16 L365.52,15.7 L365.9325,15.2 L366.32,15.2 L371.12,15.2 L371.5075,15.2 L371.92,15.7 L371.92,16 L371.92,16.3 L371.5075,16.8 L371.12,16.8 L369.52,16.8 Z "/><text fill="#000000" font-family="sans-serif" font-size="9.6" font-style="italic" lengthAdjust="spacingAndGlyphs" textLength="34.4" x="383.28" y="23.1281">Iterable</text><rect fill="#FFFFFF" height="13.675" style="stroke: #000000; stroke-width: 0.800000011920929; stroke-dasharray: 2.0,2.0;" width="8" x="439.2" y="4"/><text fill="#000000" font-family="sans-serif" font-size="9.6" font-style="italic" lengthAdjust="spacingAndGlyphs" textLength="6.4" x="440" y="14.7656">E</text><line style="stroke: #A80036; stroke-width: 1.2000000178813934;" x1="342.4" x2="444" y1="32" y2="32"/><ellipse cx="350.4" cy="41.9344" fill="#84BE84" rx="2.4" ry="2.4" style="stroke: #038048; stroke-width: 0.800000011920929;"/><text fill="#000000" font-family="sans-serif" font-size="8.8" lengthAdjust="spacingAndGlyphs" textLength="82.4" x="357.6" y="44.3352">iterator() : Iterator&lt;E&gt;</text><!--class Collection--><rect fill="#FEFECE" filter="url(#f1hjjpvku6bn5x)" height="87.3438" id="Collection" style="stroke: #A80036; stroke-width: 1.2000000178813934;" width="139.2" x="323.6" y="97.6"/><ellipse cx="363" cy="110.4" fill="#B4A7E5" rx="8.8" ry="8.8" style="stroke: #A80036; stroke-width: 0.800000011920929;"/><path d="M363.8,108 L363.8,112.8 L365.4,112.8 L365.7875,112.8 L366.2,113.3 L366.2,113.6 L366.2,113.9 L365.7875,114.4 L365.4,114.4 L360.6,114.4 L360.2125,114.4 L359.8,113.9 L359.8,113.6 L359.8,113.3 L360.2125,112.8 L360.6,112.8 L362.2,112.8 L362.2,108 L360.6,108 L360.2125,108 L359.8,107.5 L359.8,107.2 L359.8,106.9 L360.2125,106.4 L360.6,106.4 L365.4,106.4 L365.7875,106.4 L366.2,106.9 L366.2,107.2 L366.2,107.5 L365.7875,108 L365.4,108 L363.8,108 Z "/><text fill="#000000" font-family="sans-serif" font-size="9.6" font-style="italic" lengthAdjust="spacingAndGlyphs" textLength="44" x="379.4" y="114.3281">Collection</text><rect fill="#FFFFFF" height="13.675" style="stroke: #000000; stroke-width: 0.800000011920929; stroke-dasharray: 2.0,2.0;" width="8" x="457.2" y="95.2"/><text fill="#000000" font-family="sans-serif" font-size="9.6" font-style="italic" lengthAdjust="spacingAndGlyphs" textLength="6.4" x="458" y="105.9656">E</text><line style="stroke: #A80036; stroke-width: 1.2000000178813934;" x1="324.4" x2="462" y1="123.2" y2="123.2"/><ellipse cx="332.4" cy="133.1344" fill="#84BE84" rx="2.4" ry="2.4" style="stroke: #038048; stroke-width: 0.800000011920929;"/><text fill="#000000" font-family="sans-serif" font-size="8.8" lengthAdjust="spacingAndGlyphs" textLength="97.6" x="339.6" y="135.5352">add(element: E) : boolean</text><ellipse cx="332.4" cy="144.2031" fill="#84BE84" rx="2.4" ry="2.4" style="stroke: #038048; stroke-width: 0.800000011920929;"/><text fill="#000000" font-family="sans-serif" font-size="8.8" lengthAdjust="spacingAndGlyphs" textLength="114.4" x="339.6" y="146.6039">remove(element : E) : boolean</text><ellipse cx="332.4" cy="155.2719" fill="#84BE84" rx="2.4" ry="2.4" style="stroke: #038048; stroke-width: 0.800000011920929;"/><text fill="#000000" font-family="sans-serif" font-size="8.8" lengthAdjust="spacingAndGlyphs" textLength="118.4" x="339.6" y="157.6727">contains(element : E) : boolean</text><ellipse cx="332.4" cy="166.3406" fill="#84BE84" rx="2.4" ry="2.4" style="stroke: #038048; stroke-width: 0.800000011920929;"/><text fill="#000000" font-family="sans-serif" font-size="8.8" lengthAdjust="spacingAndGlyphs" textLength="48.8" x="339.6" y="168.7414">clear() : void</text><ellipse cx="332.4" cy="177.4094" fill="#84BE84" rx="2.4" ry="2.4" style="stroke: #038048; stroke-width: 0.800000011920929;"/><text fill="#000000" font-family="sans-serif" font-size="8.8" lengthAdjust="spacingAndGlyphs" textLength="38.4" x="339.6" y="179.8102">size() : int</text><polygon fill="#FBFB77" filter="url(#f1hjjpvku6bn5x)" points="490.8,124,490.8,158.1625,598,158.1625,598,132,590,124,490.8,124" style="stroke: #A80036; stroke-width: 0.800000011920929;"/><polygon fill="#FBFB77" points="490.8,124,490.8,138,462.8936,141.2,490.8,144.4,490.8,158.1625,598,158.1625,598,132,590,124,490.8,124" style="stroke: #A80036; stroke-width: 0.800000011920929;"/><line style="stroke: #A80036; stroke-width: 0.800000011920929;" x1="590" x2="590" y1="124" y2="132"/><line style="stroke: #A80036; stroke-width: 0.800000011920929;" x1="598" x2="590" y1="132" y2="132"/><text fill="#000000" font-family="sans-serif" font-size="10.4" lengthAdjust="spacingAndGlyphs" textLength="90.4" x="495.6" y="138.7961">Contient un nombre</text><text fill="#000000" font-family="sans-serif" font-size="10.4" lengthAdjust="spacingAndGlyphs" textLength="65.6" x="495.6" y="151.8773">fini d'éléments</text><!--class Set--><rect fill="#FEFECE" filter="url(#f1hjjpvku6bn5x)" height="25.6" id="Set" style="stroke: #A80036; stroke-width: 1.2000000178813934;" width="49.6" x="254.8" y="247.2"/><ellipse cx="266.8" cy="260" fill="#B4A7E5" rx="8.8" ry="8.8" style="stroke: #A80036; stroke-width: 0.800000011920929;"/><path d="M267.6,257.6 L267.6,262.4 L269.2,262.4 L269.5875,262.4 L270,262.9 L270,263.2 L270,263.5 L269.5875,264 L269.2,264 L264.4,264 L264.0125,264 L263.6,263.5 L263.6,263.2 L263.6,262.9 L264.0125,262.4 L264.4,262.4 L266,262.4 L266,257.6 L264.4,257.6 L264.0125,257.6 L263.6,257.1 L263.6,256.8 L263.6,256.5 L264.0125,256 L264.4,256 L269.2,256 L269.5875,256 L270,256.5 L270,256.8 L270,257.1 L269.5875,257.6 L269.2,257.6 L267.6,257.6 Z "/><text fill="#000000" font-family="sans-serif" font-size="9.6" font-style="italic" lengthAdjust="spacingAndGlyphs" textLength="14.4" x="278" y="263.9281">Set</text><rect fill="#FFFFFF" height="13.675" style="stroke: #000000; stroke-width: 0.800000011920929; stroke-dasharray: 2.0,2.0;" width="8" x="298.8" y="244.8"/><text fill="#000000" font-family="sans-serif" font-size="9.6" font-style="italic" lengthAdjust="spacingAndGlyphs" textLength="6.4" x="299.6" y="255.5656">E</text><polygon fill="#FBFB77" filter="url(#f1hjjpvku6bn5x)" points="142.4,242.8,142.4,276.9625,226.4,276.9625,226.4,250.8,218.4,242.8,142.4,242.8" style="stroke: #A80036; stroke-width: 0.800000011920929;"/><polygon fill="#FBFB77" points="142.4,242.8,142.4,276.9625,226.4,276.9625,226.4,263.2,254.6728,260,226.4,256.8,226.4,250.8,218.4,242.8,142.4,242.8" style="stroke: #A80036; stroke-width: 0.800000011920929;"/><line style="stroke: #A80036; stroke-width: 0.800000011920929;" x1="218.4" x2="218.4" y1="242.8" y2="250.8"/><line style="stroke: #A80036; stroke-width: 0.800000011920929;" x1="226.4" x2="218.4" y1="250.8" y2="250.8"/><text fill="#000000" font-family="sans-serif" font-size="10.4" lengthAdjust="spacingAndGlyphs" textLength="52.8" x="147.2" y="257.5961">Ne contient</text><text fill="#000000" font-family="sans-serif" font-size="10.4" lengthAdjust="spacingAndGlyphs" textLength="67.2" x="147.2" y="270.6773">aucun doublon</text><!--class List--><rect fill="#FEFECE" filter="url(#f1hjjpvku6bn5x)" height="54.1375" id="List" style="stroke: #A80036; stroke-width: 1.2000000178813934;" width="120.8" x="332.8" y="232.8"/><ellipse cx="377.4" cy="245.6" fill="#B4A7E5" rx="8.8" ry="8.8" style="stroke: #A80036; stroke-width: 0.800000011920929;"/><path d="M378.2,243.2 L378.2,248 L379.8,248 L380.1875,248 L380.6,248.5 L380.6,248.8 L380.6,249.1 L380.1875,249.6 L379.8,249.6 L375,249.6 L374.6125,249.6 L374.2,249.1 L374.2,248.8 L374.2,248.5 L374.6125,248 L375,248 L376.6,248 L376.6,243.2 L375,243.2 L374.6125,243.2 L374.2,242.7 L374.2,242.4 L374.2,242.1 L374.6125,241.6 L375,241.6 L379.8,241.6 L380.1875,241.6 L380.6,242.1 L380.6,242.4 L380.6,242.7 L380.1875,243.2 L379.8,243.2 L378.2,243.2 Z "/><text fill="#000000" font-family="sans-serif" font-size="9.6" font-style="italic" lengthAdjust="spacingAndGlyphs" textLength="15.2" x="393.8" y="249.5281">List</text><rect fill="#FFFFFF" height="13.675" style="stroke: #000000; stroke-width: 0.800000011920929; stroke-dasharray: 2.0,2.0;" width="8" x="448" y="230.4"/><text fill="#000000" font-family="sans-serif" font-size="9.6" font-style="italic" lengthAdjust="spacingAndGlyphs" textLength="6.4" x="448.8" y="241.1656">E</text><line style="stroke: #A80036; stroke-width: 1.2000000178813934;" x1="333.6" x2="452.8" y1="258.4" y2="258.4"/><ellipse cx="341.6" cy="268.3344" fill="#84BE84" rx="2.4" ry="2.4" style="stroke: #038048; stroke-width: 0.800000011920929;"/><text fill="#000000" font-family="sans-serif" font-size="8.8" lengthAdjust="spacingAndGlyphs" textLength="67.2" x="348.8" y="270.7352">get(index : int) : E</text><ellipse cx="341.6" cy="279.4031" fill="#84BE84" rx="2.4" ry="2.4" style="stroke: #038048; stroke-width: 0.800000011920929;"/><text fill="#000000" font-family="sans-serif" font-size="8.8" lengthAdjust="spacingAndGlyphs" textLength="100" x="348.8" y="281.8039">toArray&lt;T&gt;(T[] array) : T[]</text><polygon fill="#FBFB77" filter="url(#f1hjjpvku6bn5x)" points="482,242.8,482,276.9625,571.6,276.9625,571.6,250.8,563.6,242.8,482,242.8" style="stroke: #A80036; stroke-width: 0.800000011920929;"/><polygon fill="#FBFB77" points="482,242.8,482,256.8,453.7376,260,482,263.2,482,276.9625,571.6,276.9625,571.6,250.8,563.6,242.8,482,242.8" style="stroke: #A80036; stroke-width: 0.800000011920929;"/><line style="stroke: #A80036; stroke-width: 0.800000011920929;" x1="563.6" x2="563.6" y1="242.8" y2="250.8"/><line style="stroke: #A80036; stroke-width: 0.800000011920929;" x1="571.6" x2="563.6" y1="250.8" y2="250.8"/><text fill="#000000" font-family="sans-serif" font-size="10.4" lengthAdjust="spacingAndGlyphs" textLength="72.8" x="486.8" y="257.5961">Conserve l'ordre</text><text fill="#000000" font-family="sans-serif" font-size="10.4" lengthAdjust="spacingAndGlyphs" textLength="62.4" x="486.8" y="270.6773">des éléments</text><!--class SortedSet--><rect fill="#FEFECE" filter="url(#f1hjjpvku6bn5x)" height="25.6" id="SortedSet" style="stroke: #A80036; stroke-width: 1.2000000178813934;" width="78.4" x="138" y="371.6"/><ellipse cx="150" cy="384.4" fill="#B4A7E5" rx="8.8" ry="8.8" style="stroke: #A80036; stroke-width: 0.800000011920929;"/><path d="M150.8,382 L150.8,386.8 L152.4,386.8 L152.7875,386.8 L153.2,387.3 L153.2,387.6 L153.2,387.9 L152.7875,388.4 L152.4,388.4 L147.6,388.4 L147.2125,388.4 L146.8,387.9 L146.8,387.6 L146.8,387.3 L147.2125,386.8 L147.6,386.8 L149.2,386.8 L149.2,382 L147.6,382 L147.2125,382 L146.8,381.5 L146.8,381.2 L146.8,380.9 L147.2125,380.4 L147.6,380.4 L152.4,380.4 L152.7875,380.4 L153.2,380.9 L153.2,381.2 L153.2,381.5 L152.7875,382 L152.4,382 L150.8,382 Z "/><text fill="#000000" font-family="sans-serif" font-size="9.6" font-style="italic" lengthAdjust="spacingAndGlyphs" textLength="43.2" x="161.2" y="388.3281">SortedSet</text><rect fill="#FFFFFF" height="13.675" style="stroke: #000000; stroke-width: 0.800000011920929; stroke-dasharray: 2.0,2.0;" width="8" x="210.8" y="369.2"/><text fill="#000000" font-family="sans-serif" font-size="9.6" font-style="italic" lengthAdjust="spacingAndGlyphs" textLength="6.4" x="211.6" y="379.9656">E</text><polygon fill="#FBFB77" filter="url(#f1hjjpvku6bn5x)" points="4.8,367.2,4.8,401.3625,109.6,401.3625,109.6,375.2,101.6,367.2,4.8,367.2" style="stroke: #A80036; stroke-width: 0.800000011920929;"/><polygon fill="#FBFB77" points="4.8,367.2,4.8,401.3625,109.6,401.3625,109.6,387.6,137.9128,384.4,109.6,381.2,109.6,375.2,101.6,367.2,4.8,367.2" style="stroke: #A80036; stroke-width: 0.800000011920929;"/><line style="stroke: #A80036; stroke-width: 0.800000011920929;" x1="101.6" x2="101.6" y1="367.2" y2="375.2"/><line style="stroke: #A80036; stroke-width: 0.800000011920929;" x1="109.6" x2="101.6" y1="375.2" y2="375.2"/><text fill="#000000" font-family="sans-serif" font-size="10.4" lengthAdjust="spacingAndGlyphs" textLength="88" x="9.6" y="381.9961">Tous ses éléments</text><text fill="#000000" font-family="sans-serif" font-size="10.4" lengthAdjust="spacingAndGlyphs" textLength="43.2" x="9.6" y="395.0773">sont triés</text><!--class HashSet--><rect fill="#FEFECE" filter="url(#f1hjjpvku6bn5x)" height="25.6" id="HashSet" style="stroke: #A80036; stroke-width: 1.2000000178813934;" width="73.6" x="249.2" y="371.6"/><ellipse cx="261.2" cy="384.4" fill="#ADD1B2" rx="8.8" ry="8.8" style="stroke: #A80036; stroke-width: 0.800000011920929;"/><path d="M262.8,381.6 Q262.9625,381.2 263.15,381 Q263.3375,380.8 263.55,380.8 Q263.925,380.8 264.1625,381.025 Q264.4,381.25 264.4,381.775 L264.4,383.025 Q264.4,383.55 264.175,383.775 Q263.95,384 263.6,384 Q263.2875,384 263.0875,383.8625 Q262.8875,383.725 262.8,383.3625 Q262.7625,383.1125 262.625,382.975 Q262.375,382.7125 261.925,382.5563 Q261.475,382.4 261.025,382.4 Q260.4625,382.4 259.9938,382.625 Q259.525,382.85 259.1625,383.35 Q258.8,383.85 258.8,384.5375 L258.8,385.275 Q258.8,386.1 259.475,386.65 Q260.15,387.2 261.35,387.2 Q262.0625,387.2 262.5625,387.0375 Q262.85,386.95 263.175,386.6625 Q263.3875,386.5 263.5,386.45 Q263.6125,386.4 263.75,386.4 Q264.0125,386.4 264.2063,386.6063 Q264.4,386.8125 264.4,387.1 Q264.4,387.375 264.125,387.7 Q263.725,388.175 263.0875,388.4375 Q262.25,388.8 261.225,388.8 Q260.025,388.8 259.0625,388.325 Q258.2875,387.95 257.7438,387.1375 Q257.2,386.325 257.2,385.3625 L257.2,384.4875 Q257.2,383.4875 257.6813,382.6125 Q258.1625,381.7375 259.0063,381.2688 Q259.85,380.8 260.8,380.8 Q261.375,380.8 261.875,381 Q262.375,381.2 262.8,381.6 Z "/><text fill="#000000" font-family="sans-serif" font-size="9.6" lengthAdjust="spacingAndGlyphs" textLength="38.4" x="272.4" y="388.3281">HashSet</text><rect fill="#FFFFFF" height="13.675" style="stroke: #000000; stroke-width: 0.800000011920929; stroke-dasharray: 2.0,2.0;" width="8" x="317.2" y="369.2"/><text fill="#000000" font-family="sans-serif" font-size="9.6" font-style="italic" lengthAdjust="spacingAndGlyphs" textLength="6.4" x="318" y="379.9656">E</text><!--class LinkedHashSet--><rect fill="#FEFECE" filter="url(#f1hjjpvku6bn5x)" height="25.6" id="LinkedHashSet" style="stroke: #A80036; stroke-width: 1.2000000178813934;" width="103.2" x="237.6" y="481.6"/><ellipse cx="249.6" cy="494.4" fill="#ADD1B2" rx="8.8" ry="8.8" style="stroke: #A80036; stroke-width: 0.800000011920929;"/><path d="M251.2,491.6 Q251.3625,491.2 251.55,491 Q251.7375,490.8 251.95,490.8 Q252.325,490.8 252.5625,491.025 Q252.8,491.25 252.8,491.775 L252.8,493.025 Q252.8,493.55 252.575,493.775 Q252.35,494 252,494 Q251.6875,494 251.4875,493.8625 Q251.2875,493.725 251.2,493.3625 Q251.1625,493.1125 251.025,492.975 Q250.775,492.7125 250.325,492.5563 Q249.875,492.4 249.425,492.4 Q248.8625,492.4 248.3938,492.625 Q247.925,492.85 247.5625,493.35 Q247.2,493.85 247.2,494.5375 L247.2,495.275 Q247.2,496.1 247.875,496.65 Q248.55,497.2 249.75,497.2 Q250.4625,497.2 250.9625,497.0375 Q251.25,496.95 251.575,496.6625 Q251.7875,496.5 251.9,496.45 Q252.0125,496.4 252.15,496.4 Q252.4125,496.4 252.6063,496.6063 Q252.8,496.8125 252.8,497.1 Q252.8,497.375 252.525,497.7 Q252.125,498.175 251.4875,498.4375 Q250.65,498.8 249.625,498.8 Q248.425,498.8 247.4625,498.325 Q246.6875,497.95 246.1438,497.1375 Q245.6,496.325 245.6,495.3625 L245.6,494.4875 Q245.6,493.4875 246.0813,492.6125 Q246.5625,491.7375 247.4063,491.2688 Q248.25,490.8 249.2,490.8 Q249.775,490.8 250.275,491 Q250.775,491.2 251.2,491.6 Z "/><text fill="#000000" font-family="sans-serif" font-size="9.6" lengthAdjust="spacingAndGlyphs" textLength="68" x="260.8" y="498.3281">LinkedHashSet</text><rect fill="#FFFFFF" height="13.675" style="stroke: #000000; stroke-width: 0.800000011920929; stroke-dasharray: 2.0,2.0;" width="8" x="335.2" y="479.2"/><text fill="#000000" font-family="sans-serif" font-size="9.6" font-style="italic" lengthAdjust="spacingAndGlyphs" textLength="6.4" x="336" y="489.9656">E</text><!--class TreeSet--><rect fill="#FEFECE" filter="url(#f1hjjpvku6bn5x)" height="25.6" id="TreeSet" style="stroke: #A80036; stroke-width: 1.2000000178813934;" width="69.6" x="140" y="481.6"/><ellipse cx="152" cy="494.4" fill="#ADD1B2" rx="8.8" ry="8.8" style="stroke: #A80036; stroke-width: 0.800000011920929;"/><path d="M153.6,491.6 Q153.7625,491.2 153.95,491 Q154.1375,490.8 154.35,490.8 Q154.725,490.8 154.9625,491.025 Q155.2,491.25 155.2,491.775 L155.2,493.025 Q155.2,493.55 154.975,493.775 Q154.75,494 154.4,494 Q154.0875,494 153.8875,493.8625 Q153.6875,493.725 153.6,493.3625 Q153.5625,493.1125 153.425,492.975 Q153.175,492.7125 152.725,492.5563 Q152.275,492.4 151.825,492.4 Q151.2625,492.4 150.7938,492.625 Q150.325,492.85 149.9625,493.35 Q149.6,493.85 149.6,494.5375 L149.6,495.275 Q149.6,496.1 150.275,496.65 Q150.95,497.2 152.15,497.2 Q152.8625,497.2 153.3625,497.0375 Q153.65,496.95 153.975,496.6625 Q154.1875,496.5 154.3,496.45 Q154.4125,496.4 154.55,496.4 Q154.8125,496.4 155.0063,496.6063 Q155.2,496.8125 155.2,497.1 Q155.2,497.375 154.925,497.7 Q154.525,498.175 153.8875,498.4375 Q153.05,498.8 152.025,498.8 Q150.825,498.8 149.8625,498.325 Q149.0875,497.95 148.5438,497.1375 Q148,496.325 148,495.3625 L148,494.4875 Q148,493.4875 148.4813,492.6125 Q148.9625,491.7375 149.8063,491.2688 Q150.65,490.8 151.6,490.8 Q152.175,490.8 152.675,491 Q153.175,491.2 153.6,491.6 Z "/><text fill="#000000" font-family="sans-serif" font-size="9.6" lengthAdjust="spacingAndGlyphs" textLength="34.4" x="163.2" y="498.3281">TreeSet</text><rect fill="#FFFFFF" height="13.675" style="stroke: #000000; stroke-width: 0.800000011920929; stroke-dasharray: 2.0,2.0;" width="8" x="204" y="479.2"/><text fill="#000000" font-family="sans-serif" font-size="9.6" font-style="italic" lengthAdjust="spacingAndGlyphs" textLength="6.4" x="204.8" y="489.9656">E</text><!--class ArrayList--><rect fill="#FEFECE" filter="url(#f1hjjpvku6bn5x)" height="25.6" id="ArrayList" style="stroke: #A80036; stroke-width: 1.2000000178813934;" width="72.8" x="356.8" y="371.6"/><ellipse cx="368.8" cy="384.4" fill="#ADD1B2" rx="8.8" ry="8.8" style="stroke: #A80036; stroke-width: 0.800000011920929;"/><path d="M370.4,381.6 Q370.5625,381.2 370.75,381 Q370.9375,380.8 371.15,380.8 Q371.525,380.8 371.7625,381.025 Q372,381.25 372,381.775 L372,383.025 Q372,383.55 371.775,383.775 Q371.55,384 371.2,384 Q370.8875,384 370.6875,383.8625 Q370.4875,383.725 370.4,383.3625 Q370.3625,383.1125 370.225,382.975 Q369.975,382.7125 369.525,382.5563 Q369.075,382.4 368.625,382.4 Q368.0625,382.4 367.5938,382.625 Q367.125,382.85 366.7625,383.35 Q366.4,383.85 366.4,384.5375 L366.4,385.275 Q366.4,386.1 367.075,386.65 Q367.75,387.2 368.95,387.2 Q369.6625,387.2 370.1625,387.0375 Q370.45,386.95 370.775,386.6625 Q370.9875,386.5 371.1,386.45 Q371.2125,386.4 371.35,386.4 Q371.6125,386.4 371.8063,386.6063 Q372,386.8125 372,387.1 Q372,387.375 371.725,387.7 Q371.325,388.175 370.6875,388.4375 Q369.85,388.8 368.825,388.8 Q367.625,388.8 366.6625,388.325 Q365.8875,387.95 365.3438,387.1375 Q364.8,386.325 364.8,385.3625 L364.8,384.4875 Q364.8,383.4875 365.2813,382.6125 Q365.7625,381.7375 366.6063,381.2688 Q367.45,380.8 368.4,380.8 Q368.975,380.8 369.475,381 Q369.975,381.2 370.4,381.6 Z "/><text fill="#000000" font-family="sans-serif" font-size="9.6" lengthAdjust="spacingAndGlyphs" textLength="37.6" x="380" y="388.3281">ArrayList</text><rect fill="#FFFFFF" height="13.675" style="stroke: #000000; stroke-width: 0.800000011920929; stroke-dasharray: 2.0,2.0;" width="8" x="424" y="369.2"/><text fill="#000000" font-family="sans-serif" font-size="9.6" font-style="italic" lengthAdjust="spacingAndGlyphs" textLength="6.4" x="424.8" y="379.9656">E</text><!--class LinkedList--><rect fill="#FEFECE" filter="url(#f1hjjpvku6bn5x)" height="25.6" id="LinkedList" style="stroke: #A80036; stroke-width: 1.2000000178813934;" width="80.8" x="518.4" y="481.6"/><ellipse cx="530.4" cy="494.4" fill="#ADD1B2" rx="8.8" ry="8.8" style="stroke: #A80036; stroke-width: 0.800000011920929;"/><path d="M532,491.6 Q532.1625,491.2 532.35,491 Q532.5375,490.8 532.75,490.8 Q533.125,490.8 533.3625,491.025 Q533.6,491.25 533.6,491.775 L533.6,493.025 Q533.6,493.55 533.375,493.775 Q533.15,494 532.8,494 Q532.4875,494 532.2875,493.8625 Q532.0875,493.725 532,493.3625 Q531.9625,493.1125 531.825,492.975 Q531.575,492.7125 531.125,492.5563 Q530.675,492.4 530.225,492.4 Q529.6625,492.4 529.1938,492.625 Q528.725,492.85 528.3625,493.35 Q528,493.85 528,494.5375 L528,495.275 Q528,496.1 528.675,496.65 Q529.35,497.2 530.55,497.2 Q531.2625,497.2 531.7625,497.0375 Q532.05,496.95 532.375,496.6625 Q532.5875,496.5 532.7,496.45 Q532.8125,496.4 532.95,496.4 Q533.2125,496.4 533.4063,496.6063 Q533.6,496.8125 533.6,497.1 Q533.6,497.375 533.325,497.7 Q532.925,498.175 532.2875,498.4375 Q531.45,498.8 530.425,498.8 Q529.225,498.8 528.2625,498.325 Q527.4875,497.95 526.9438,497.1375 Q526.4,496.325 526.4,495.3625 L526.4,494.4875 Q526.4,493.4875 526.8813,492.6125 Q527.3625,491.7375 528.2063,491.2688 Q529.05,490.8 530,490.8 Q530.575,490.8 531.075,491 Q531.575,491.2 532,491.6 Z "/><text fill="#000000" font-family="sans-serif" font-size="9.6" lengthAdjust="spacingAndGlyphs" textLength="45.6" x="541.6" y="498.3281">LinkedList</text><rect fill="#FFFFFF" height="13.675" style="stroke: #000000; stroke-width: 0.800000011920929; stroke-dasharray: 2.0,2.0;" width="8" x="593.6" y="479.2"/><text fill="#000000" font-family="sans-serif" font-size="9.6" font-style="italic" lengthAdjust="spacingAndGlyphs" textLength="6.4" x="594.4" y="489.9656">E</text><!--class Queue--><rect fill="#FEFECE" filter="url(#f1hjjpvku6bn5x)" height="25.6" id="Queue" style="stroke: #A80036; stroke-width: 1.2000000178813934;" width="64.8" x="600" y="247.2"/><ellipse cx="612" cy="260" fill="#B4A7E5" rx="8.8" ry="8.8" style="stroke: #A80036; stroke-width: 0.800000011920929;"/><path d="M612.8,257.6 L612.8,262.4 L614.4,262.4 L614.7875,262.4 L615.2,262.9 L615.2,263.2 L615.2,263.5 L614.7875,264 L614.4,264 L609.6,264 L609.2125,264 L608.8,263.5 L608.8,263.2 L608.8,262.9 L609.2125,262.4 L609.6,262.4 L611.2,262.4 L611.2,257.6 L609.6,257.6 L609.2125,257.6 L608.8,257.1 L608.8,256.8 L608.8,256.5 L609.2125,256 L609.6,256 L614.4,256 L614.7875,256 L615.2,256.5 L615.2,256.8 L615.2,257.1 L614.7875,257.6 L614.4,257.6 L612.8,257.6 Z "/><text fill="#000000" font-family="sans-serif" font-size="9.6" font-style="italic" lengthAdjust="spacingAndGlyphs" textLength="29.6" x="623.2" y="263.9281">Queue</text><rect fill="#FFFFFF" height="13.675" style="stroke: #000000; stroke-width: 0.800000011920929; stroke-dasharray: 2.0,2.0;" width="8" x="659.2" y="244.8"/><text fill="#000000" font-family="sans-serif" font-size="9.6" font-style="italic" lengthAdjust="spacingAndGlyphs" textLength="6.4" x="660" y="255.5656">E</text><!--class Deque--><rect fill="#FEFECE" filter="url(#f1hjjpvku6bn5x)" height="98.4125" id="Deque" style="stroke: #A80036; stroke-width: 1.2000000178813934;" width="123.2" x="556.4" y="335.2"/><ellipse cx="595" cy="348" fill="#B4A7E5" rx="8.8" ry="8.8" style="stroke: #A80036; stroke-width: 0.800000011920929;"/><path d="M595.8,345.6 L595.8,350.4 L597.4,350.4 L597.7875,350.4 L598.2,350.9 L598.2,351.2 L598.2,351.5 L597.7875,352 L597.4,352 L592.6,352 L592.2125,352 L591.8,351.5 L591.8,351.2 L591.8,350.9 L592.2125,350.4 L592.6,350.4 L594.2,350.4 L594.2,345.6 L592.6,345.6 L592.2125,345.6 L591.8,345.1 L591.8,344.8 L591.8,344.5 L592.2125,344 L592.6,344 L597.4,344 L597.7875,344 L598.2,344.5 L598.2,344.8 L598.2,345.1 L597.7875,345.6 L597.4,345.6 L595.8,345.6 Z "/><text fill="#000000" font-family="sans-serif" font-size="9.6" font-style="italic" lengthAdjust="spacingAndGlyphs" textLength="29.6" x="611.4" y="351.9281">Deque</text><rect fill="#FFFFFF" height="13.675" style="stroke: #000000; stroke-width: 0.800000011920929; stroke-dasharray: 2.0,2.0;" width="8" x="674" y="332.8"/><text fill="#000000" font-family="sans-serif" font-size="9.6" font-style="italic" lengthAdjust="spacingAndGlyphs" textLength="6.4" x="674.8" y="343.5656">E</text><line style="stroke: #A80036; stroke-width: 1.2000000178813934;" x1="557.2" x2="678.8" y1="360.8" y2="360.8"/><ellipse cx="565.2" cy="370.7344" fill="#84BE84" rx="2.4" ry="2.4" style="stroke: #038048; stroke-width: 0.800000011920929;"/><text fill="#000000" font-family="sans-serif" font-size="8.8" lengthAdjust="spacingAndGlyphs" textLength="102.4" x="572.4" y="373.1352">addFirst(element : E) : void</text><ellipse cx="565.2" cy="381.8031" fill="#84BE84" rx="2.4" ry="2.4" style="stroke: #038048; stroke-width: 0.800000011920929;"/><text fill="#000000" font-family="sans-serif" font-size="8.8" lengthAdjust="spacingAndGlyphs" textLength="102.4" x="572.4" y="384.2039">addLast(element : E) : void</text><ellipse cx="565.2" cy="392.8719" fill="#84BE84" rx="2.4" ry="2.4" style="stroke: #038048; stroke-width: 0.800000011920929;"/><text fill="#000000" font-family="sans-serif" font-size="8.8" lengthAdjust="spacingAndGlyphs" textLength="47.2" x="572.4" y="395.2727">getFirst() : E</text><ellipse cx="565.2" cy="403.9406" fill="#84BE84" rx="2.4" ry="2.4" style="stroke: #038048; stroke-width: 0.800000011920929;"/><text fill="#000000" font-family="sans-serif" font-size="8.8" lengthAdjust="spacingAndGlyphs" textLength="47.2" x="572.4" y="406.3414">getLast() : E</text><ellipse cx="565.2" cy="415.0094" fill="#84BE84" rx="2.4" ry="2.4" style="stroke: #038048; stroke-width: 0.800000011920929;"/><text fill="#000000" font-family="sans-serif" font-size="8.8" lengthAdjust="spacingAndGlyphs" textLength="64" x="572.4" y="417.4102">removeFirst() : E</text><ellipse cx="565.2" cy="426.0781" fill="#84BE84" rx="2.4" ry="2.4" style="stroke: #038048; stroke-width: 0.800000011920929;"/><text fill="#000000" font-family="sans-serif" font-size="8.8" lengthAdjust="spacingAndGlyphs" textLength="64" x="572.4" y="428.4789">removeLast() : E</text><!--link Iterable to Collection--><path d="M393.2,66.1224 C393.2,76.2032 393.2,87.1904 393.2,97.548 " fill="none" id="Iterable-Collection" style="stroke: #A80036; stroke-width: 0.800000011920929;"/><polygon fill="none" points="387.6,65.7912,393.2,49.7912,398.8,65.7912,387.6,65.7912" style="stroke: #A80036; stroke-width: 0.800000011920929;"/><!--link Collection to Set--><path d="M340.3024,196.5736 C322.0248,215.4304 303.2064,234.8456 291.464,246.96 " fill="none" id="Collection-Set" style="stroke: #A80036; stroke-width: 0.800000011920929;"/><polygon fill="none" points="336.388,192.5664,351.5448,184.9752,344.4296,200.3616,336.388,192.5664" style="stroke: #A80036; stroke-width: 0.800000011920929;"/><!--link Collection to List--><path d="M393.2,201.02 C393.2,212.0872 393.2,223.1344 393.2,232.5824 " fill="none" id="Collection-List" style="stroke: #A80036; stroke-width: 0.800000011920929;"/><polygon fill="none" points="387.6,200.9752,393.2,184.9752,398.8,200.9752,387.6,200.9752" style="stroke: #A80036; stroke-width: 0.800000011920929;"/><!--link Set to SortedSet--><path d="M258.9848,285.5216 C237.268,311.5656 203.9616,351.5064 187.352,371.4256 " fill="none" id="Set-SortedSet" style="stroke: #A80036; stroke-width: 0.800000011920929;"/><polygon fill="none" points="254.8592,281.7256,269.4072,273.0232,263.4608,288.8984,254.8592,281.7256" style="stroke: #A80036; stroke-width: 0.800000011920929;"/><!--link Set to HashSet--><path d="M281.0808,289.2072 C282.4352,315.204 284.3752,352.4248 285.3656,371.4256 " fill="none" id="Set-HashSet" style="stroke: #A80036; stroke-width: 0.800000011920929;"/><polygon fill="none" points="275.4776,289.2936,280.2368,273.0232,286.6624,288.7104,275.4776,289.2936" style="stroke: #A80036; stroke-width: 0.800000011920929;"/><!--link HashSet to LinkedHashSet--><path d="M286.8272,413.228 C287.4808,435.3556 288.36,465.1418 288.844,481.5313 " fill="none" id="HashSet-LinkedHashSet" style="stroke: #A80036; stroke-width: 0.800000011920929;"/><polygon fill="none" points="281.2296,413.3728,286.3544,397.2152,292.4248,413.0424,281.2296,413.3728" style="stroke: #A80036; stroke-width: 0.800000011920929;"/><!--link SortedSet to TreeSet--><path d="M176.5792,413.228 C176.0896,435.3556 175.4304,465.1418 175.0672,481.5313 " fill="none" id="SortedSet-TreeSet" style="stroke: #A80036; stroke-width: 0.800000011920929;"/><polygon fill="none" points="170.9808,413.0872,176.9336,397.2152,182.1784,413.3352,170.9808,413.0872" style="stroke: #A80036; stroke-width: 0.800000011920929;"/><!--link List to ArrayList--><path d="M393.2,303.584 C393.2,327.616 393.2,355.8512 393.2,371.5368 " fill="none" id="List-ArrayList" style="stroke: #A80036; stroke-width: 0.800000011920929;"/><polygon fill="none" points="387.6,303.4456,393.2,287.4456,398.8,303.4456,387.6,303.4456" style="stroke: #A80036; stroke-width: 0.800000011920929;"/><!--link List to LinkedList--><path d="M421.3656,300.396 C459.7368,354.3376 526.38,448.0241 550.1056,481.3777 " fill="none" id="List-LinkedList" style="stroke: #A80036; stroke-width: 0.800000011920929;"/><polygon fill="none" points="416.7464,303.5624,412.0352,287.2784,425.8728,297.0704,416.7464,303.5624" style="stroke: #A80036; stroke-width: 0.800000011920929;"/><!--link Collection to Queue--><path d="M477.7232,185.2392 C526.7184,208.0096 541.9704,211.2344 585.2,232.8 C594.0216,237.2008 603.5472,242.4328 611.7152,247.0736 " fill="none" id="Collection-Queue" style="stroke: #A80036; stroke-width: 0.800000011920929;"/><polygon fill="none" points="475.0344,190.1624,462.9576,178.2672,479.8168,180.0352,475.0344,190.1624" style="stroke: #A80036; stroke-width: 0.800000011920929;"/><!--link Queue to Deque--><path d="M629.084,289.08 C627.48,302.7536 625.5104,319.5536 623.6784,335.1792 " fill="none" id="Queue-Deque" style="stroke: #A80036; stroke-width: 0.800000011920929;"/><polygon fill="none" points="623.5416,288.2624,630.9664,273.0232,634.6648,289.5672,623.5416,288.2624" style="stroke: #A80036; stroke-width: 0.800000011920929;"/><!--link Deque to LinkedList--><path d="M583.7968,447.8283 C576.74,460.7503 570.0408,473.0171 565.3568,481.5933 " fill="none" id="Deque-LinkedList" style="stroke: #A80036; stroke-width: 0.800000011920929;"/><polygon fill="none" points="578.9328,445.0513,591.5168,433.693,588.7624,450.4195,578.9328,445.0513" style="stroke: #A80036; stroke-width: 0.800000011920929;"/><!--
@startuml
hide empty members

interface Iterable<E> {
    +iterator() : Iterator<E>
}
interface Collection<E> {
    +add(element: E) : boolean
    +remove(element : E) : boolean
    +contains(element : E) : boolean
    +clear() : void
    +size() : int
}

note right of Collection : Contient un nombre\nfini d'éléments

interface Set<E>

note left of Set : Ne contient\naucun doublon

interface List<E> {
    +get(index : int) : E
    +toArray<T>(T[] array) : T[]
}

note right of List : Conserve l'ordre\ndes éléments

interface SortedSet<E>

note left of SortedSet : Tous ses éléments\nsont triés

class HashSet<E>
class LinkedHashSet<E>
class TreeSet<E>
class ArrayList<E>
class LinkedList<E>
interface Queue<E>
interface Deque<E> {
    +addFirst(element : E) : void
    +addLast(element : E) : void
    +getFirst() : E
    +getLast() : E
    +removeFirst() : E
    +removeLast() : E
}

Iterable <|- - Collection
Collection <|- - Set
Collection <|- - List
Set <|- - SortedSet
Set <|- - HashSet
HashSet <|- - LinkedHashSet
SortedSet <|- - TreeSet
List <|- - ArrayList
List <|- - LinkedList
Collection <|- - Queue
Queue <|- - Deque
Deque <|- - LinkedList
@enduml

PlantUML version 1.2017.15(Mon Jul 03 18:45:34 CEST 2017)
(GPL source distribution)
Java Runtime: OpenJDK Runtime Environment
JVM: OpenJDK 64-Bit Server VM
Java Version: 1.8.0_152-release-915-b12
Operating System: Windows 10
OS Version: 10.0
Default Encoding: Cp1252
Language: en
Country: US
--></g></svg>