<?xml version="1.0" encoding="UTF-8" standalone="no"?><svg xmlns="http://www.w3.org/2000/svg" xmlns:xlink="http://www.w3.org/1999/xlink" contentScriptType="application/ecmascript" contentStyleType="text/css" height="260.8px" preserveAspectRatio="none" style="width:500px;height:260px;" version="1.1" viewBox="0 0 500 260" width="500.8px" zoomAndPan="magnify"><defs><filter height="300%" id="f1ct5929v0c8y2" width="300%" x="-1" y="-1"><feGaussianBlur result="blurOut" stdDeviation="1.600000023841858"/><feColorMatrix in="blurOut" result="blurOut2" type="matrix" values="0 0 0 0 0 0 0 0 0 0 0 0 0 0 0 0 0 0 .4 0"/><feOffset dx="3.200000047683716" dy="3.200000047683716" in="blurOut2" result="blurOut3"/><feBlend in="SourceGraphic" in2="blurOut3" mode="normal"/></filter></defs><g><!--class Map--><rect fill="#FEFECE" filter="url(#f1ct5929v0c8y2)" height="98.4125" id="Map" style="stroke: #A80036; stroke-width: 1.2000000178813934;" width="154.4" x="185.6" y="6.4"/><ellipse cx="239.8" cy="19.2" fill="#B4A7E5" rx="8.8" ry="8.8" style="stroke: #A80036; stroke-width: 0.800000011920929;"/><path d="M240.6,16.8 L240.6,21.6 L242.2,21.6 L242.5875,21.6 L243,22.1 L243,22.4 L243,22.7 L242.5875,23.2 L242.2,23.2 L237.4,23.2 L237.0125,23.2 L236.6,22.7 L236.6,22.4 L236.6,22.1 L237.0125,21.6 L237.4,21.6 L239,21.6 L239,16.8 L237.4,16.8 L237.0125,16.8 L236.6,16.3 L236.6,16 L236.6,15.7 L237.0125,15.2 L237.4,15.2 L242.2,15.2 L242.5875,15.2 L243,15.7 L243,16 L243,16.3 L242.5875,16.8 L242.2,16.8 L240.6,16.8 Z "/><text fill="#000000" font-family="sans-serif" font-size="9.6" font-style="italic" lengthAdjust="spacingAndGlyphs" textLength="18.4" x="256.2" y="23.1281">Map</text><rect fill="#FFFFFF" height="13.675" style="stroke: #000000; stroke-width: 0.800000011920929; stroke-dasharray: 2.0,2.0;" width="19.2" x="323.2" y="4"/><text fill="#000000" font-family="sans-serif" font-size="9.6" font-style="italic" lengthAdjust="spacingAndGlyphs" textLength="17.6" x="324" y="14.7656">K, V</text><line style="stroke: #A80036; stroke-width: 1.2000000178813934;" x1="186.4" x2="339.2" y1="32" y2="32"/><ellipse cx="194.4" cy="41.9344" fill="#84BE84" rx="2.4" ry="2.4" style="stroke: #038048; stroke-width: 0.800000011920929;"/><text fill="#000000" font-family="sans-serif" font-size="8.8" lengthAdjust="spacingAndGlyphs" textLength="97.6" x="201.6" y="44.3352">put(key : K, value : V) : V</text><ellipse cx="194.4" cy="53.0031" fill="#84BE84" rx="2.4" ry="2.4" style="stroke: #038048; stroke-width: 0.800000011920929;"/><text fill="#000000" font-family="sans-serif" font-size="8.8" lengthAdjust="spacingAndGlyphs" textLength="58.4" x="201.6" y="55.4039">get(key : K) : V</text><ellipse cx="194.4" cy="64.0719" fill="#84BE84" rx="2.4" ry="2.4" style="stroke: #038048; stroke-width: 0.800000011920929;"/><text fill="#000000" font-family="sans-serif" font-size="8.8" lengthAdjust="spacingAndGlyphs" textLength="73.6" x="201.6" y="66.4727">remove(key : k) : V</text><ellipse cx="194.4" cy="75.1406" fill="#84BE84" rx="2.4" ry="2.4" style="stroke: #038048; stroke-width: 0.800000011920929;"/><text fill="#000000" font-family="sans-serif" font-size="8.8" lengthAdjust="spacingAndGlyphs" textLength="68" x="201.6" y="77.5414">keySet() : Set&lt;K&gt;</text><ellipse cx="194.4" cy="86.2094" fill="#84BE84" rx="2.4" ry="2.4" style="stroke: #038048; stroke-width: 0.800000011920929;"/><text fill="#000000" font-family="sans-serif" font-size="8.8" lengthAdjust="spacingAndGlyphs" textLength="92" x="201.6" y="88.6102">values() : Collection&lt;V&gt;</text><ellipse cx="194.4" cy="97.2781" fill="#84BE84" rx="2.4" ry="2.4" style="stroke: #038048; stroke-width: 0.800000011920929;"/><text fill="#000000" font-family="sans-serif" font-size="8.8" lengthAdjust="spacingAndGlyphs" textLength="133.6" x="201.6" y="99.6789">entrySet() : Set&lt;Map.Entry&lt;K, V&gt;&gt;</text><!--class HashMap--><rect fill="#FEFECE" filter="url(#f1ct5929v0c8y2)" height="25.6" id="HashMap" style="stroke: #A80036; stroke-width: 1.2000000178813934;" width="88.8" x="156.8" y="152.8"/><ellipse cx="168.8" cy="165.6" fill="#ADD1B2" rx="8.8" ry="8.8" style="stroke: #A80036; stroke-width: 0.800000011920929;"/><path d="M170.4,162.8 Q170.5625,162.4 170.75,162.2 Q170.9375,162 171.15,162 Q171.525,162 171.7625,162.225 Q172,162.45 172,162.975 L172,164.225 Q172,164.75 171.775,164.975 Q171.55,165.2 171.2,165.2 Q170.8875,165.2 170.6875,165.0625 Q170.4875,164.925 170.4,164.5625 Q170.3625,164.3125 170.225,164.175 Q169.975,163.9125 169.525,163.7563 Q169.075,163.6 168.625,163.6 Q168.0625,163.6 167.5938,163.825 Q167.125,164.05 166.7625,164.55 Q166.4,165.05 166.4,165.7375 L166.4,166.475 Q166.4,167.3 167.075,167.85 Q167.75,168.4 168.95,168.4 Q169.6625,168.4 170.1625,168.2375 Q170.45,168.15 170.775,167.8625 Q170.9875,167.7 171.1,167.65 Q171.2125,167.6 171.35,167.6 Q171.6125,167.6 171.8063,167.8063 Q172,168.0125 172,168.3 Q172,168.575 171.725,168.9 Q171.325,169.375 170.6875,169.6375 Q169.85,170 168.825,170 Q167.625,170 166.6625,169.525 Q165.8875,169.15 165.3438,168.3375 Q164.8,167.525 164.8,166.5625 L164.8,165.6875 Q164.8,164.6875 165.2813,163.8125 Q165.7625,162.9375 166.6063,162.4688 Q167.45,162 168.4,162 Q168.975,162 169.475,162.2 Q169.975,162.4 170.4,162.8 Z "/><text fill="#000000" font-family="sans-serif" font-size="9.6" lengthAdjust="spacingAndGlyphs" textLength="42.4" x="180" y="169.5281">HashMap</text><rect fill="#FFFFFF" height="13.675" style="stroke: #000000; stroke-width: 0.800000011920929; stroke-dasharray: 2.0,2.0;" width="19.2" x="228.8" y="150.4"/><text fill="#000000" font-family="sans-serif" font-size="9.6" font-style="italic" lengthAdjust="spacingAndGlyphs" textLength="17.6" x="229.6" y="161.1656">K, V</text><!--class LinkedHashMap--><rect fill="#FEFECE" filter="url(#f1ct5929v0c8y2)" height="25.6" id="LinkedHashMap" style="stroke: #A80036; stroke-width: 1.2000000178813934;" width="118.4" x="139.6" y="226.4"/><ellipse cx="151.6" cy="239.2" fill="#ADD1B2" rx="8.8" ry="8.8" style="stroke: #A80036; stroke-width: 0.800000011920929;"/><path d="M153.2,236.4 Q153.3625,236 153.55,235.8 Q153.7375,235.6 153.95,235.6 Q154.325,235.6 154.5625,235.825 Q154.8,236.05 154.8,236.575 L154.8,237.825 Q154.8,238.35 154.575,238.575 Q154.35,238.8 154,238.8 Q153.6875,238.8 153.4875,238.6625 Q153.2875,238.525 153.2,238.1625 Q153.1625,237.9125 153.025,237.775 Q152.775,237.5125 152.325,237.3563 Q151.875,237.2 151.425,237.2 Q150.8625,237.2 150.3938,237.425 Q149.925,237.65 149.5625,238.15 Q149.2,238.65 149.2,239.3375 L149.2,240.075 Q149.2,240.9 149.875,241.45 Q150.55,242 151.75,242 Q152.4625,242 152.9625,241.8375 Q153.25,241.75 153.575,241.4625 Q153.7875,241.3 153.9,241.25 Q154.0125,241.2 154.15,241.2 Q154.4125,241.2 154.6063,241.4063 Q154.8,241.6125 154.8,241.9 Q154.8,242.175 154.525,242.5 Q154.125,242.975 153.4875,243.2375 Q152.65,243.6 151.625,243.6 Q150.425,243.6 149.4625,243.125 Q148.6875,242.75 148.1438,241.9375 Q147.6,241.125 147.6,240.1625 L147.6,239.2875 Q147.6,238.2875 148.0813,237.4125 Q148.5625,236.5375 149.4063,236.0688 Q150.25,235.6 151.2,235.6 Q151.775,235.6 152.275,235.8 Q152.775,236 153.2,236.4 Z "/><text fill="#000000" font-family="sans-serif" font-size="9.6" lengthAdjust="spacingAndGlyphs" textLength="72" x="162.8" y="243.1281">LinkedHashMap</text><rect fill="#FFFFFF" height="13.675" style="stroke: #000000; stroke-width: 0.800000011920929; stroke-dasharray: 2.0,2.0;" width="19.2" x="241.2" y="224"/><text fill="#000000" font-family="sans-serif" font-size="9.6" font-style="italic" lengthAdjust="spacingAndGlyphs" textLength="17.6" x="242" y="234.7656">K, V</text><polygon fill="#FBFB77" filter="url(#f1ct5929v0c8y2)" points="4.8,228.8,4.8,249.8813,111.2,249.8813,111.2,236.8,103.2,228.8,4.8,228.8" style="stroke: #A80036; stroke-width: 0.800000011920929;"/><polygon fill="#FBFB77" points="4.8,228.8,4.8,249.8813,111.2,249.8813,111.2,243.2,139.3616,239.2,111.2,236.8,111.2,236.8,103.2,228.8,4.8,228.8" style="stroke: #A80036; stroke-width: 0.800000011920929;"/><line style="stroke: #A80036; stroke-width: 0.800000011920929;" x1="103.2" x2="103.2" y1="228.8" y2="236.8"/><line style="stroke: #A80036; stroke-width: 0.800000011920929;" x1="111.2" x2="103.2" y1="236.8" y2="236.8"/><text fill="#000000" font-family="sans-serif" font-size="10.4" lengthAdjust="spacingAndGlyphs" textLength="89.6" x="9.6" y="243.5961">Éléments ordonnés</text><!--class SortedMap--><rect fill="#FEFECE" filter="url(#f1ct5929v0c8y2)" height="25.6" id="SortedMap" style="stroke: #A80036; stroke-width: 1.2000000178813934;" width="93.6" x="278.4" y="152.8"/><ellipse cx="290.4" cy="165.6" fill="#B4A7E5" rx="8.8" ry="8.8" style="stroke: #A80036; stroke-width: 0.800000011920929;"/><path d="M291.2,163.2 L291.2,168 L292.8,168 L293.1875,168 L293.6,168.5 L293.6,168.8 L293.6,169.1 L293.1875,169.6 L292.8,169.6 L288,169.6 L287.6125,169.6 L287.2,169.1 L287.2,168.8 L287.2,168.5 L287.6125,168 L288,168 L289.6,168 L289.6,163.2 L288,163.2 L287.6125,163.2 L287.2,162.7 L287.2,162.4 L287.2,162.1 L287.6125,161.6 L288,161.6 L292.8,161.6 L293.1875,161.6 L293.6,162.1 L293.6,162.4 L293.6,162.7 L293.1875,163.2 L292.8,163.2 L291.2,163.2 Z "/><text fill="#000000" font-family="sans-serif" font-size="9.6" font-style="italic" lengthAdjust="spacingAndGlyphs" textLength="47.2" x="301.6" y="169.5281">SortedMap</text><rect fill="#FFFFFF" height="13.675" style="stroke: #000000; stroke-width: 0.800000011920929; stroke-dasharray: 2.0,2.0;" width="19.2" x="355.2" y="150.4"/><text fill="#000000" font-family="sans-serif" font-size="9.6" font-style="italic" lengthAdjust="spacingAndGlyphs" textLength="17.6" x="356" y="161.1656">K, V</text><!--class TreeMap--><rect fill="#FEFECE" filter="url(#f1ct5929v0c8y2)" height="25.6" id="TreeMap" style="stroke: #A80036; stroke-width: 1.2000000178813934;" width="84.8" x="286" y="226.4"/><ellipse cx="298" cy="239.2" fill="#ADD1B2" rx="8.8" ry="8.8" style="stroke: #A80036; stroke-width: 0.800000011920929;"/><path d="M299.6,236.4 Q299.7625,236 299.95,235.8 Q300.1375,235.6 300.35,235.6 Q300.725,235.6 300.9625,235.825 Q301.2,236.05 301.2,236.575 L301.2,237.825 Q301.2,238.35 300.975,238.575 Q300.75,238.8 300.4,238.8 Q300.0875,238.8 299.8875,238.6625 Q299.6875,238.525 299.6,238.1625 Q299.5625,237.9125 299.425,237.775 Q299.175,237.5125 298.725,237.3563 Q298.275,237.2 297.825,237.2 Q297.2625,237.2 296.7938,237.425 Q296.325,237.65 295.9625,238.15 Q295.6,238.65 295.6,239.3375 L295.6,240.075 Q295.6,240.9 296.275,241.45 Q296.95,242 298.15,242 Q298.8625,242 299.3625,241.8375 Q299.65,241.75 299.975,241.4625 Q300.1875,241.3 300.3,241.25 Q300.4125,241.2 300.55,241.2 Q300.8125,241.2 301.0063,241.4063 Q301.2,241.6125 301.2,241.9 Q301.2,242.175 300.925,242.5 Q300.525,242.975 299.8875,243.2375 Q299.05,243.6 298.025,243.6 Q296.825,243.6 295.8625,243.125 Q295.0875,242.75 294.5438,241.9375 Q294,241.125 294,240.1625 L294,239.2875 Q294,238.2875 294.4813,237.4125 Q294.9625,236.5375 295.8063,236.0688 Q296.65,235.6 297.6,235.6 Q298.175,235.6 298.675,235.8 Q299.175,236 299.6,236.4 Z "/><text fill="#000000" font-family="sans-serif" font-size="9.6" lengthAdjust="spacingAndGlyphs" textLength="38.4" x="309.2" y="243.1281">TreeMap</text><rect fill="#FFFFFF" height="13.675" style="stroke: #000000; stroke-width: 0.800000011920929; stroke-dasharray: 2.0,2.0;" width="19.2" x="354" y="224"/><text fill="#000000" font-family="sans-serif" font-size="9.6" font-style="italic" lengthAdjust="spacingAndGlyphs" textLength="17.6" x="354.8" y="234.7656">K, V</text><polygon fill="#FBFB77" filter="url(#f1ct5929v0c8y2)" points="399.2,228.8,399.2,249.8813,483.2,249.8813,483.2,236.8,475.2,228.8,399.2,228.8" style="stroke: #A80036; stroke-width: 0.800000011920929;"/><polygon fill="#FBFB77" points="399.2,228.8,399.2,236,370.92,239.2,399.2,242.4,399.2,249.8813,483.2,249.8813,483.2,236.8,475.2,228.8,399.2,228.8" style="stroke: #A80036; stroke-width: 0.800000011920929;"/><line style="stroke: #A80036; stroke-width: 0.800000011920929;" x1="475.2" x2="475.2" y1="228.8" y2="236.8"/><line style="stroke: #A80036; stroke-width: 0.800000011920929;" x1="483.2" x2="475.2" y1="236.8" y2="236.8"/><text fill="#000000" font-family="sans-serif" font-size="10.4" lengthAdjust="spacingAndGlyphs" textLength="67.2" x="404" y="243.5961">Éléments triés</text><!--link Map to SortedMap--><path d="M298.7328,118.8224 C306.2152,131.82 313.3256,144.1712 318.288,152.7936 " fill="none" id="Map-SortedMap" style="stroke: #A80036; stroke-width: 0.800000011920929;"/><polygon fill="none" points="293.844,121.5536,290.7144,104.8928,303.5504,115.9656,293.844,121.5536" style="stroke: #A80036; stroke-width: 0.800000011920929;"/><!--link Map to HashMap--><path d="M227.328,118.8224 C219.9416,131.82 212.9224,144.1712 208.0232,152.7936 " fill="none" id="Map-HashMap" style="stroke: #A80036; stroke-width: 0.800000011920929;"/><polygon fill="none" points="222.4696,116.0368,235.2432,104.8928,232.2064,121.5704,222.4696,116.0368" style="stroke: #A80036; stroke-width: 0.800000011920929;"/><!--link HashMap to LinkedHashMap--><path d="M200.2504,194.8918 C199.8848,205.8482 199.4872,217.7757 199.2008,226.3666 " fill="none" id="HashMap-LinkedHashMap" style="stroke: #A80036; stroke-width: 0.800000011920929;"/><polygon fill="none" points="194.6632,194.4183,200.7928,178.6138,205.8568,194.7915,194.6632,194.4183" style="stroke: #A80036; stroke-width: 0.800000011920929;"/><!--link SortedMap to TreeMap--><path d="M326.4664,194.8918 C326.9536,205.8482 327.4832,217.7757 327.8648,226.3666 " fill="none" id="SortedMap-TreeMap" style="stroke: #A80036; stroke-width: 0.800000011920929;"/><polygon fill="none" points="320.8592,194.8467,325.7432,178.6138,332.048,194.3494,320.8592,194.8467" style="stroke: #A80036; stroke-width: 0.800000011920929;"/><!--
@startuml
hide empty members

interface Map<K, V> {
    +put(key : K, value : V) : V
    +get(key : K) : V
    +remove(key : k) : V
    +keySet() : Set<K>
    +values() : Collection<V>
    +entrySet() : Set<Map.Entry<K, V>>
}
class HashMap<K, V>
class LinkedHashMap<K, V>

note left of LinkedHashMap : Éléments ordonnés

interface SortedMap<K, V>
class TreeMap<K, V>

note right of TreeMap : Éléments triés

Map <|- - SortedMap
Map <|- - HashMap
HashMap <|- - LinkedHashMap
SortedMap <|- - TreeMap
@enduml

PlantUML version 1.2017.15(Mon Jul 03 18:45:34 CEST 2017)
(GPL source distribution)
Java Runtime: OpenJDK Runtime Environment
JVM: OpenJDK 64-Bit Server VM
Java Version: 1.8.0_152-release-915-b12
Operating System: Windows 10
OS Version: 10.0
Default Encoding: Cp1252
Language: en
Country: US
--></g></svg>