<?xml version="1.0" encoding="UTF-8" standalone="no"?><svg xmlns="http://www.w3.org/2000/svg" xmlns:xlink="http://www.w3.org/1999/xlink" contentScriptType="application/ecmascript" contentStyleType="text/css" height="215px" preserveAspectRatio="none" style="width:560px;height:215px;" version="1.1" viewBox="0 0 560 215" width="560px" zoomAndPan="magnify"><defs><filter height="300%" id="f1hljliddtedy7" width="300%" x="-1" y="-1"><feGaussianBlur result="blurOut" stdDeviation="2.0"/><feColorMatrix in="blurOut" result="blurOut2" type="matrix" values="0 0 0 0 0 0 0 0 0 0 0 0 0 0 0 0 0 0 .4 0"/><feOffset dx="4.0" dy="4.0" in="blurOut2" result="blurOut3"/><feBlend in="SourceGraphic" in2="blurOut3" mode="normal"/></filter></defs><g><!--class Object--><rect fill="#FEFECE" filter="url(#f1hljliddtedy7)" height="75.6719" id="Object" style="stroke: #A80036; stroke-width: 1.5;" width="178" x="6" y="8"/><ellipse cx="73.25" cy="24" fill="#ADD1B2" rx="11" ry="11" style="stroke: #A80036; stroke-width: 1.0;"/><path d="M75.25,20.5 Q75.4531,20 75.6875,19.75 Q75.9219,19.5 76.1875,19.5 Q76.6563,19.5 76.9531,19.7813 Q77.25,20.0625 77.25,20.7188 L77.25,22.2813 Q77.25,22.9375 76.9688,23.2188 Q76.6875,23.5 76.25,23.5 Q75.8594,23.5 75.6094,23.3281 Q75.3594,23.1563 75.25,22.7031 Q75.2031,22.3906 75.0313,22.2188 Q74.7188,21.8906 74.1563,21.6953 Q73.5938,21.5 73.0313,21.5 Q72.3281,21.5 71.7422,21.7813 Q71.1563,22.0625 70.7031,22.6875 Q70.25,23.3125 70.25,24.1719 L70.25,25.0938 Q70.25,26.125 71.0938,26.8125 Q71.9375,27.5 73.4375,27.5 Q74.3281,27.5 74.9531,27.2969 Q75.3125,27.1875 75.7188,26.8281 Q75.9844,26.625 76.125,26.5625 Q76.2656,26.5 76.4375,26.5 Q76.7656,26.5 77.0078,26.7578 Q77.25,27.0156 77.25,27.375 Q77.25,27.7188 76.9063,28.125 Q76.4063,28.7188 75.6094,29.0469 Q74.5625,29.5 73.2813,29.5 Q71.7813,29.5 70.5781,28.9063 Q69.6094,28.4375 68.9297,27.4219 Q68.25,26.4063 68.25,25.2031 L68.25,24.1094 Q68.25,22.8594 68.8516,21.7656 Q69.4531,20.6719 70.5078,20.0859 Q71.5625,19.5 72.75,19.5 Q73.4688,19.5 74.0938,19.75 Q74.7188,20 75.25,20.5 Z "/><text fill="#000000" font-family="sans-serif" font-size="12" lengthAdjust="spacingAndGlyphs" textLength="35" x="93.75" y="28.9102">Object</text><line style="stroke: #A80036; stroke-width: 1.5;" x1="7" x2="183" y1="40" y2="40"/><line style="stroke: #A80036; stroke-width: 1.5;" x1="7" x2="183" y1="48" y2="48"/><ellipse cx="17" cy="60.418" fill="#84BE84" rx="3" ry="3" style="stroke: #038048; stroke-width: 1.0;"/><text fill="#000000" font-family="sans-serif" font-size="11" lengthAdjust="spacingAndGlyphs" textLength="77" x="26" y="63.4189">hashCode() : int</text><ellipse cx="17" cy="74.2539" fill="#84BE84" rx="3" ry="3" style="stroke: #038048; stroke-width: 1.0;"/><text fill="#000000" font-family="sans-serif" font-size="11" lengthAdjust="spacingAndGlyphs" textLength="152" x="26" y="77.2549">equals(other : Object) : boolean</text><!--class Comparable--><rect fill="#FEFECE" filter="url(#f1hljliddtedy7)" height="61.8359" id="Comparable" style="stroke: #A80036; stroke-width: 1.5;" width="148" x="219" y="15"/><ellipse cx="249.75" cy="31" fill="#B4A7E5" rx="11" ry="11" style="stroke: #A80036; stroke-width: 1.0;"/><path d="M250.75,28 L250.75,34 L252.75,34 L253.2344,34 L253.75,34.625 L253.75,35 L253.75,35.375 L253.2344,36 L252.75,36 L246.75,36 L246.2656,36 L245.75,35.375 L245.75,35 L245.75,34.625 L246.2656,34 L246.75,34 L248.75,34 L248.75,28 L246.75,28 L246.2656,28 L245.75,27.375 L245.75,27 L245.75,26.625 L246.2656,26 L246.75,26 L252.75,26 L253.2344,26 L253.75,26.625 L253.75,27 L253.75,27.375 L253.2344,28 L252.75,28 L250.75,28 Z "/><text fill="#000000" font-family="sans-serif" font-size="12" font-style="italic" lengthAdjust="spacingAndGlyphs" textLength="70" x="267.25" y="35.9102">Comparable</text><rect fill="#FFFFFF" height="17.0938" style="stroke: #000000; stroke-width: 1.0; stroke-dasharray: 2.0,2.0;" width="9" x="361" y="12"/><text fill="#000000" font-family="sans-serif" font-size="12" font-style="italic" lengthAdjust="spacingAndGlyphs" textLength="7" x="362" y="25.457">T</text><line style="stroke: #A80036; stroke-width: 1.5;" x1="220" x2="366" y1="47" y2="47"/><line style="stroke: #A80036; stroke-width: 1.5;" x1="220" x2="366" y1="55" y2="55"/><ellipse cx="230" cy="67.418" fill="#84BE84" rx="3" ry="3" style="stroke: #038048; stroke-width: 1.0;"/><text fill="#000000" font-family="sans-serif" font-size="11" lengthAdjust="spacingAndGlyphs" textLength="122" x="239" y="70.4189">compareTo(other : T) : int</text><!--class Comparator--><rect fill="#FEFECE" filter="url(#f1hljliddtedy7)" height="61.8359" id="Comparator" style="stroke: #A80036; stroke-width: 1.5;" width="144" x="402" y="15"/><ellipse cx="432.75" cy="31" fill="#B4A7E5" rx="11" ry="11" style="stroke: #A80036; stroke-width: 1.0;"/><path d="M433.75,28 L433.75,34 L435.75,34 L436.2344,34 L436.75,34.625 L436.75,35 L436.75,35.375 L436.2344,36 L435.75,36 L429.75,36 L429.2656,36 L428.75,35.375 L428.75,35 L428.75,34.625 L429.2656,34 L429.75,34 L431.75,34 L431.75,28 L429.75,28 L429.2656,28 L428.75,27.375 L428.75,27 L428.75,26.625 L429.2656,26 L429.75,26 L435.75,26 L436.2344,26 L436.75,26.625 L436.75,27 L436.75,27.375 L436.2344,28 L435.75,28 L433.75,28 Z "/><text fill="#000000" font-family="sans-serif" font-size="12" font-style="italic" lengthAdjust="spacingAndGlyphs" textLength="66" x="450.25" y="35.9102">Comparator</text><rect fill="#FFFFFF" height="17.0938" style="stroke: #000000; stroke-width: 1.0; stroke-dasharray: 2.0,2.0;" width="9" x="540" y="12"/><text fill="#000000" font-family="sans-serif" font-size="12" font-style="italic" lengthAdjust="spacingAndGlyphs" textLength="7" x="541" y="25.457">T</text><line style="stroke: #A80036; stroke-width: 1.5;" x1="403" x2="545" y1="47" y2="47"/><line style="stroke: #A80036; stroke-width: 1.5;" x1="403" x2="545" y1="55" y2="55"/><ellipse cx="413" cy="67.418" fill="#84BE84" rx="3" ry="3" style="stroke: #038048; stroke-width: 1.0;"/><text fill="#000000" font-family="sans-serif" font-size="11" lengthAdjust="spacingAndGlyphs" textLength="118" x="422" y="70.4189">compare(x : T, y : T) : int</text><polygon fill="#FBFB77" filter="url(#f1hljliddtedy7)" points="338,144,338,203.0547,428,203.0547,428,154,418,144,338,144" style="stroke: #A80036; stroke-width: 1.0;"/><line style="stroke: #A80036; stroke-width: 1.0;" x1="418" x2="418" y1="144" y2="154"/><line style="stroke: #A80036; stroke-width: 1.0;" x1="428" x2="418" y1="154" y2="154"/><text fill="#000000" font-family="sans-serif" font-size="13" lengthAdjust="spacingAndGlyphs" textLength="65" x="344" y="162.4951">[x == y] : 0</text><text fill="#000000" font-family="sans-serif" font-size="13" lengthAdjust="spacingAndGlyphs" textLength="69" x="344" y="178.8467">[x &lt; y] : &lt; 0</text><text fill="#000000" font-family="sans-serif" font-size="13" lengthAdjust="spacingAndGlyphs" textLength="69" x="344" y="195.1982">[x &gt; y] : &gt; 0</text><!--link Comparable to n1--><path d="M314.557,77.06 C329.118,97.365 348.222,124.0046 362.546,143.978 " fill="none" id="Comparable-n1" style="stroke: #A80036; stroke-width: 1.0; stroke-dasharray: 7.0,7.0;"/><!--link Comparator to n1--><path d="M452.203,77.06 C437.481,97.365 418.164,124.0046 403.681,143.978 " fill="none" id="Comparator-n1" style="stroke: #A80036; stroke-width: 1.0; stroke-dasharray: 7.0,7.0;"/><!--
@startuml

class Object {
    +hashCode() : int
    +equals(other : Object) : boolean
}

interface Comparable<T> {
    +compareTo(other : T) : int
}

interface Comparator<T> {
    +compare(x : T, y : T) : int
}

note "[x == y] : 0\n[x < y] : < 0\n[x > y] : > 0" as n1
Comparable .. n1
Comparator .. n1

@enduml

PlantUML version 1.2017.15(Mon Jul 03 18:45:34 CEST 2017)
(GPL source distribution)
Java Runtime: OpenJDK Runtime Environment
JVM: OpenJDK 64-Bit Server VM
Java Version: 1.8.0_152-release-915-b12
Operating System: Windows 10
OS Version: 10.0
Default Encoding: Cp1252
Language: en
Country: US
--></g></svg>