<?xml version="1.0" encoding="UTF-8" standalone="no"?><svg xmlns="http://www.w3.org/2000/svg" xmlns:xlink="http://www.w3.org/1999/xlink" contentScriptType="application/ecmascript" contentStyleType="text/css" height="433px" preserveAspectRatio="none" style="width:548px;height:433px;" version="1.1" viewBox="0 0 548 433" width="548px" zoomAndPan="magnify"><defs><filter height="300%" id="f19i4kyyjnfy63" width="300%" x="-1" y="-1"><feGaussianBlur result="blurOut" stdDeviation="2.0"/><feColorMatrix in="blurOut" result="blurOut2" type="matrix" values="0 0 0 0 0 0 0 0 0 0 0 0 0 0 0 0 0 0 .4 0"/><feOffset dx="4.0" dy="4.0" in="blurOut2" result="blurOut3"/><feBlend in="SourceGraphic" in2="blurOut3" mode="normal"/></filter></defs><g><!--cluster java.lang--><polygon fill="#FFFFFF" filter="url(#f19i4kyyjnfy63)" points="133.5,293,202.5,293,209.5,316.6094,526.5,316.6094,526.5,421,133.5,421,133.5,293" style="stroke: #000000; stroke-width: 2.0;"/><line style="stroke: #000000; stroke-width: 2.0;" x1="133.5" x2="209.5" y1="316.6094" y2="316.6094"/><text fill="#000000" font-family="sans-serif" font-size="14" font-weight="bold" lengthAdjust="spacingAndGlyphs" textLength="63" x="137.5" y="309.5332">java.lang</text><!--cluster java.util--><polygon fill="#FFFFFF" filter="url(#f19i4kyyjnfy63)" points="40.5,24,101.5,24,108.5,47.6094,502.5,47.6094,502.5,166,40.5,166,40.5,24" style="stroke: #000000; stroke-width: 2.0;"/><line style="stroke: #000000; stroke-width: 2.0;" x1="40.5" x2="108.5" y1="47.6094" y2="47.6094"/><text fill="#000000" font-family="sans-serif" font-size="14" font-weight="bold" lengthAdjust="spacingAndGlyphs" textLength="55" x="44.5" y="40.5332">java.util</text><!--class Object--><rect fill="#FEFECE" filter="url(#f19i4kyyjnfy63)" height="75.6719" id="Object" style="stroke: #A80036; stroke-width: 1.5;" width="178" x="149.5" y="329"/><ellipse cx="216.75" cy="345" fill="#ADD1B2" rx="11" ry="11" style="stroke: #A80036; stroke-width: 1.0;"/><path d="M218.75,341.5 Q218.9531,341 219.1875,340.75 Q219.4219,340.5 219.6875,340.5 Q220.1563,340.5 220.4531,340.7813 Q220.75,341.0625 220.75,341.7188 L220.75,343.2813 Q220.75,343.9375 220.4688,344.2188 Q220.1875,344.5 219.75,344.5 Q219.3594,344.5 219.1094,344.3281 Q218.8594,344.1563 218.75,343.7031 Q218.7031,343.3906 218.5313,343.2188 Q218.2188,342.8906 217.6563,342.6953 Q217.0938,342.5 216.5313,342.5 Q215.8281,342.5 215.2422,342.7813 Q214.6563,343.0625 214.2031,343.6875 Q213.75,344.3125 213.75,345.1719 L213.75,346.0938 Q213.75,347.125 214.5938,347.8125 Q215.4375,348.5 216.9375,348.5 Q217.8281,348.5 218.4531,348.2969 Q218.8125,348.1875 219.2188,347.8281 Q219.4844,347.625 219.625,347.5625 Q219.7656,347.5 219.9375,347.5 Q220.2656,347.5 220.5078,347.7578 Q220.75,348.0156 220.75,348.375 Q220.75,348.7188 220.4063,349.125 Q219.9063,349.7188 219.1094,350.0469 Q218.0625,350.5 216.7813,350.5 Q215.2813,350.5 214.0781,349.9063 Q213.1094,349.4375 212.4297,348.4219 Q211.75,347.4063 211.75,346.2031 L211.75,345.1094 Q211.75,343.8594 212.3516,342.7656 Q212.9531,341.6719 214.0078,341.0859 Q215.0625,340.5 216.25,340.5 Q216.9688,340.5 217.5938,340.75 Q218.2188,341 218.75,341.5 Z "/><text fill="#000000" font-family="sans-serif" font-size="12" lengthAdjust="spacingAndGlyphs" textLength="35" x="237.25" y="349.9102">Object</text><line style="stroke: #A80036; stroke-width: 1.5;" x1="150.5" x2="326.5" y1="361" y2="361"/><line style="stroke: #A80036; stroke-width: 1.5;" x1="150.5" x2="326.5" y1="369" y2="369"/><ellipse cx="160.5" cy="381.418" fill="#84BE84" rx="3" ry="3" style="stroke: #038048; stroke-width: 1.0;"/><text fill="#000000" font-family="sans-serif" font-size="11" lengthAdjust="spacingAndGlyphs" textLength="77" x="169.5" y="384.4189">hashCode() : int</text><ellipse cx="160.5" cy="395.2539" fill="#84BE84" rx="3" ry="3" style="stroke: #038048; stroke-width: 1.0;"/><text fill="#000000" font-family="sans-serif" font-size="11" lengthAdjust="spacingAndGlyphs" textLength="152" x="169.5" y="398.2549">equals(other : Object) : boolean</text><!--class Comparable--><rect fill="#FEFECE" filter="url(#f19i4kyyjnfy63)" height="61.8359" id="Comparable" style="stroke: #A80036; stroke-width: 1.5;" width="148" x="362.5" y="336"/><ellipse cx="393.25" cy="352" fill="#B4A7E5" rx="11" ry="11" style="stroke: #A80036; stroke-width: 1.0;"/><path d="M394.25,349 L394.25,355 L396.25,355 L396.7344,355 L397.25,355.625 L397.25,356 L397.25,356.375 L396.7344,357 L396.25,357 L390.25,357 L389.7656,357 L389.25,356.375 L389.25,356 L389.25,355.625 L389.7656,355 L390.25,355 L392.25,355 L392.25,349 L390.25,349 L389.7656,349 L389.25,348.375 L389.25,348 L389.25,347.625 L389.7656,347 L390.25,347 L396.25,347 L396.7344,347 L397.25,347.625 L397.25,348 L397.25,348.375 L396.7344,349 L396.25,349 L394.25,349 Z "/><text fill="#000000" font-family="sans-serif" font-size="12" font-style="italic" lengthAdjust="spacingAndGlyphs" textLength="70" x="410.75" y="356.9102">Comparable</text><rect fill="#FFFFFF" height="17.0938" style="stroke: #000000; stroke-width: 1.0; stroke-dasharray: 2.0,2.0;" width="9" x="504.5" y="333"/><text fill="#000000" font-family="sans-serif" font-size="12" font-style="italic" lengthAdjust="spacingAndGlyphs" textLength="7" x="505.5" y="346.457">T</text><line style="stroke: #A80036; stroke-width: 1.5;" x1="363.5" x2="509.5" y1="368" y2="368"/><line style="stroke: #A80036; stroke-width: 1.5;" x1="363.5" x2="509.5" y1="376" y2="376"/><ellipse cx="373.5" cy="388.418" fill="#84BE84" rx="3" ry="3" style="stroke: #038048; stroke-width: 1.0;"/><text fill="#000000" font-family="sans-serif" font-size="11" lengthAdjust="spacingAndGlyphs" textLength="122" x="382.5" y="391.4189">compareTo(other : T) : int</text><!--class Collections--><rect fill="#FEFECE" filter="url(#f19i4kyyjnfy63)" height="48" id="Collections" style="stroke: #A80036; stroke-width: 1.5;" width="94" x="56.5" y="81"/><ellipse cx="71.5" cy="97" fill="#ADD1B2" rx="11" ry="11" style="stroke: #A80036; stroke-width: 1.0;"/><path d="M73.5,93.5 Q73.7031,93 73.9375,92.75 Q74.1719,92.5 74.4375,92.5 Q74.9063,92.5 75.2031,92.7813 Q75.5,93.0625 75.5,93.7188 L75.5,95.2813 Q75.5,95.9375 75.2188,96.2188 Q74.9375,96.5 74.5,96.5 Q74.1094,96.5 73.8594,96.3281 Q73.6094,96.1563 73.5,95.7031 Q73.4531,95.3906 73.2813,95.2188 Q72.9688,94.8906 72.4063,94.6953 Q71.8438,94.5 71.2813,94.5 Q70.5781,94.5 69.9922,94.7813 Q69.4063,95.0625 68.9531,95.6875 Q68.5,96.3125 68.5,97.1719 L68.5,98.0938 Q68.5,99.125 69.3438,99.8125 Q70.1875,100.5 71.6875,100.5 Q72.5781,100.5 73.2031,100.2969 Q73.5625,100.1875 73.9688,99.8281 Q74.2344,99.625 74.375,99.5625 Q74.5156,99.5 74.6875,99.5 Q75.0156,99.5 75.2578,99.7578 Q75.5,100.0156 75.5,100.375 Q75.5,100.7188 75.1563,101.125 Q74.6563,101.7188 73.8594,102.0469 Q72.8125,102.5 71.5313,102.5 Q70.0313,102.5 68.8281,101.9063 Q67.8594,101.4375 67.1797,100.4219 Q66.5,99.4063 66.5,98.2031 L66.5,97.1094 Q66.5,95.8594 67.1016,94.7656 Q67.7031,93.6719 68.7578,93.0859 Q69.8125,92.5 71,92.5 Q71.7188,92.5 72.3438,92.75 Q72.9688,93 73.5,93.5 Z "/><text fill="#000000" font-family="sans-serif" font-size="12" lengthAdjust="spacingAndGlyphs" textLength="62" x="85.5" y="101.9102">Collections</text><line style="stroke: #A80036; stroke-width: 1.5;" x1="57.5" x2="149.5" y1="113" y2="113"/><line style="stroke: #A80036; stroke-width: 1.5;" x1="57.5" x2="149.5" y1="121" y2="121"/><!--class Iterator--><rect fill="#FEFECE" filter="url(#f19i4kyyjnfy63)" height="89.5078" id="Iterator" style="stroke: #A80036; stroke-width: 1.5;" width="121" x="186" y="60"/><ellipse cx="218.1" cy="76" fill="#B4A7E5" rx="11" ry="11" style="stroke: #A80036; stroke-width: 1.0;"/><path d="M219.1,73 L219.1,79 L221.1,79 L221.5844,79 L222.1,79.625 L222.1,80 L222.1,80.375 L221.5844,81 L221.1,81 L215.1,81 L214.6156,81 L214.1,80.375 L214.1,80 L214.1,79.625 L214.6156,79 L215.1,79 L217.1,79 L217.1,73 L215.1,73 L214.6156,73 L214.1,72.375 L214.1,72 L214.1,71.625 L214.6156,71 L215.1,71 L221.1,71 L221.5844,71 L222.1,71.625 L222.1,72 L222.1,72.375 L221.5844,73 L221.1,73 L219.1,73 Z "/><text fill="#000000" font-family="sans-serif" font-size="12" font-style="italic" lengthAdjust="spacingAndGlyphs" textLength="39" x="235.9" y="80.9102">Iterator</text><rect fill="#FFFFFF" height="17.0938" style="stroke: #000000; stroke-width: 1.0; stroke-dasharray: 2.0,2.0;" width="10" x="300" y="57"/><text fill="#000000" font-family="sans-serif" font-size="12" font-style="italic" lengthAdjust="spacingAndGlyphs" textLength="8" x="301" y="70.457">E</text><line style="stroke: #A80036; stroke-width: 1.5;" x1="187" x2="306" y1="92" y2="92"/><line style="stroke: #A80036; stroke-width: 1.5;" x1="187" x2="306" y1="100" y2="100"/><ellipse cx="197" cy="112.418" fill="#84BE84" rx="3" ry="3" style="stroke: #038048; stroke-width: 1.0;"/><text fill="#000000" font-family="sans-serif" font-size="11" lengthAdjust="spacingAndGlyphs" textLength="95" x="206" y="115.4189">hasNext() : boolean</text><ellipse cx="197" cy="126.2539" fill="#84BE84" rx="3" ry="3" style="stroke: #038048; stroke-width: 1.0;"/><text fill="#000000" font-family="sans-serif" font-size="11" lengthAdjust="spacingAndGlyphs" textLength="44" x="206" y="129.2549">next() : E</text><ellipse cx="197" cy="140.0898" fill="#84BE84" rx="3" ry="3" style="stroke: #038048; stroke-width: 1.0;"/><text fill="#000000" font-family="sans-serif" font-size="11" lengthAdjust="spacingAndGlyphs" textLength="73" x="206" y="143.0908">remove() : void</text><!--class Comparator--><rect fill="#FEFECE" filter="url(#f19i4kyyjnfy63)" height="61.8359" id="Comparator" style="stroke: #A80036; stroke-width: 1.5;" width="144" x="342.5" y="74"/><ellipse cx="373.25" cy="90" fill="#B4A7E5" rx="11" ry="11" style="stroke: #A80036; stroke-width: 1.0;"/><path d="M374.25,87 L374.25,93 L376.25,93 L376.7344,93 L377.25,93.625 L377.25,94 L377.25,94.375 L376.7344,95 L376.25,95 L370.25,95 L369.7656,95 L369.25,94.375 L369.25,94 L369.25,93.625 L369.7656,93 L370.25,93 L372.25,93 L372.25,87 L370.25,87 L369.7656,87 L369.25,86.375 L369.25,86 L369.25,85.625 L369.7656,85 L370.25,85 L376.25,85 L376.7344,85 L377.25,85.625 L377.25,86 L377.25,86.375 L376.7344,87 L376.25,87 L374.25,87 Z "/><text fill="#000000" font-family="sans-serif" font-size="12" font-style="italic" lengthAdjust="spacingAndGlyphs" textLength="66" x="390.75" y="94.9102">Comparator</text><rect fill="#FFFFFF" height="17.0938" style="stroke: #000000; stroke-width: 1.0; stroke-dasharray: 2.0,2.0;" width="9" x="480.5" y="71"/><text fill="#000000" font-family="sans-serif" font-size="12" font-style="italic" lengthAdjust="spacingAndGlyphs" textLength="7" x="481.5" y="84.457">T</text><line style="stroke: #A80036; stroke-width: 1.5;" x1="343.5" x2="485.5" y1="106" y2="106"/><line style="stroke: #A80036; stroke-width: 1.5;" x1="343.5" x2="485.5" y1="114" y2="114"/><ellipse cx="353.5" cy="126.418" fill="#84BE84" rx="3" ry="3" style="stroke: #038048; stroke-width: 1.0;"/><text fill="#000000" font-family="sans-serif" font-size="11" lengthAdjust="spacingAndGlyphs" textLength="118" x="362.5" y="129.4189">compare(x : T, y : T) : int</text><polygon fill="#FBFB77" filter="url(#f19i4kyyjnfy63)" points="6,210,6,269.0547,193,269.0547,193,220,183,210,6,210" style="stroke: #A80036; stroke-width: 1.0;"/><polygon fill="#FBFB77" points="6,210,6,269.0547,193,269.0547,193,220,183,210,104.3701,210,102.8033,129.08,96.3701,210,6,210" style="stroke: #A80036; stroke-width: 1.0;"/><line style="stroke: #A80036; stroke-width: 1.0;" x1="183" x2="183" y1="210" y2="220"/><line style="stroke: #A80036; stroke-width: 1.0;" x1="193" x2="183" y1="220" y2="220"/><text fill="#000000" font-family="sans-serif" font-size="13" lengthAdjust="spacingAndGlyphs" textLength="114" x="12" y="228.4951">Méthodes statiques</text><text fill="#000000" font-family="sans-serif" font-size="13" lengthAdjust="spacingAndGlyphs" textLength="166" x="12" y="244.8467">qui opèrent sur ou retournent</text><text fill="#000000" font-family="sans-serif" font-size="13" lengthAdjust="spacingAndGlyphs" textLength="87" x="12" y="261.1982">des collections</text><polygon fill="#FBFB77" filter="url(#f19i4kyyjnfy63)" points="384.5,210,384.5,269.0547,474.5,269.0547,474.5,220,464.5,210,384.5,210" style="stroke: #A80036; stroke-width: 1.0;"/><line style="stroke: #A80036; stroke-width: 1.0;" x1="464.5" x2="464.5" y1="210" y2="220"/><line style="stroke: #A80036; stroke-width: 1.0;" x1="474.5" x2="464.5" y1="220" y2="220"/><text fill="#000000" font-family="sans-serif" font-size="13" lengthAdjust="spacingAndGlyphs" textLength="65" x="390.5" y="228.4951">[x == y] : 0</text><text fill="#000000" font-family="sans-serif" font-size="13" lengthAdjust="spacingAndGlyphs" textLength="69" x="390.5" y="244.8467">[x &lt; y] : &lt; 0</text><text fill="#000000" font-family="sans-serif" font-size="13" lengthAdjust="spacingAndGlyphs" textLength="69" x="390.5" y="261.1982">[x &gt; y] : &gt; 0</text><!--link n1 to Comparable--><path d="M431.106,269.292 C432.212,289.121 433.679,315.423 434.804,335.591 " fill="none" id="n1-Comparable" style="stroke: #A80036; stroke-width: 1.0; stroke-dasharray: 7.0,7.0;"/><!--link Comparator to n1--><path d="M417.904,136.066 C420.41,158.209 423.798,188.13 426.264,209.915 " fill="none" id="Comparator-n1" style="stroke: #A80036; stroke-width: 1.0; stroke-dasharray: 7.0,7.0;"/><!--link Iterator to Object--><!--
@startuml

package java.lang {
    class Object {
        +hashCode() : int
        +equals(other : Object) : boolean
    }

    interface Comparable<T> {
        +compareTo(other : T) : int
    }
}

package java.util {
    class Collections
    interface Iterator<E> {
        +hasNext() : boolean
        +next() : E
        +remove() : void
    }

    interface Comparator<T> {
        +compare(x : T, y : T) : int
    }
}

note bottom of Collections : Méthodes statiques\nqui opèrent sur ou retournent\ndes collections


note "[x == y] : 0\n[x < y] : < 0\n[x > y] : > 0" as n1
n1 .. Comparable
Comparator .. n1

Iterator -[hidden]- - Object
@enduml

PlantUML version 1.2017.15(Mon Jul 03 18:45:34 CEST 2017)
(GPL source distribution)
Java Runtime: OpenJDK Runtime Environment
JVM: OpenJDK 64-Bit Server VM
Java Version: 1.8.0_152-release-915-b12
Operating System: Windows 10
OS Version: 10.0
Default Encoding: Cp1252
Language: en
Country: US
--></g></svg>