<?xml version="1.0" encoding="UTF-8" standalone="no"?><svg xmlns="http://www.w3.org/2000/svg" xmlns:xlink="http://www.w3.org/1999/xlink" contentScriptType="application/ecmascript" contentStyleType="text/css" height="219px" preserveAspectRatio="none" style="width:586px;height:219px;" version="1.1" viewBox="0 0 586 219" width="586px" zoomAndPan="magnify"><defs><filter height="300%" id="f12yenykwnams0" width="300%" x="-1" y="-1"><feGaussianBlur result="blurOut" stdDeviation="2.0"/><feColorMatrix in="blurOut" result="blurOut2" type="matrix" values="0 0 0 0 0 0 0 0 0 0 0 0 0 0 0 0 0 0 .4 0"/><feOffset dx="4.0" dy="4.0" in="blurOut2" result="blurOut3"/><feBlend in="SourceGraphic" in2="blurOut3" mode="normal"/></filter></defs><g><!--class Classroom--><rect fill="#FEFECE" filter="url(#f12yenykwnams0)" height="103.3438" id="Classroom" style="stroke: #A80036; stroke-width: 1.5;" width="266" x="6" y="56.5"/><ellipse cx="103.75" cy="72.5" fill="#ADD1B2" rx="11" ry="11" style="stroke: #A80036; stroke-width: 1.0;"/><path d="M105.75,69 Q105.9531,68.5 106.1875,68.25 Q106.4219,68 106.6875,68 Q107.1563,68 107.4531,68.2813 Q107.75,68.5625 107.75,69.2188 L107.75,70.7813 Q107.75,71.4375 107.4688,71.7188 Q107.1875,72 106.75,72 Q106.3594,72 106.1094,71.8281 Q105.8594,71.6563 105.75,71.2031 Q105.7031,70.8906 105.5313,70.7188 Q105.2188,70.3906 104.6563,70.1953 Q104.0938,70 103.5313,70 Q102.8281,70 102.2422,70.2813 Q101.6563,70.5625 101.2031,71.1875 Q100.75,71.8125 100.75,72.6719 L100.75,73.5938 Q100.75,74.625 101.5938,75.3125 Q102.4375,76 103.9375,76 Q104.8281,76 105.4531,75.7969 Q105.8125,75.6875 106.2188,75.3281 Q106.4844,75.125 106.625,75.0625 Q106.7656,75 106.9375,75 Q107.2656,75 107.5078,75.2578 Q107.75,75.5156 107.75,75.875 Q107.75,76.2188 107.4063,76.625 Q106.9063,77.2188 106.1094,77.5469 Q105.0625,78 103.7813,78 Q102.2813,78 101.0781,77.4063 Q100.1094,76.9375 99.4297,75.9219 Q98.75,74.9063 98.75,73.7031 L98.75,72.6094 Q98.75,71.3594 99.3516,70.2656 Q99.9531,69.1719 101.0078,68.5859 Q102.0625,68 103.25,68 Q103.9688,68 104.5938,68.25 Q105.2188,68.5 105.75,69 Z "/><text fill="#000000" font-family="sans-serif" font-size="12" lengthAdjust="spacingAndGlyphs" textLength="62" x="124.25" y="77.4102">Classroom</text><line style="stroke: #A80036; stroke-width: 1.5;" x1="7" x2="271" y1="88.5" y2="88.5"/><line style="stroke: #A80036; stroke-width: 1.5;" x1="7" x2="271" y1="96.5" y2="96.5"/><ellipse cx="17" cy="108.918" fill="#84BE84" rx="3" ry="3" style="stroke: #038048; stroke-width: 1.0;"/><text fill="#000000" font-family="sans-serif" font-size="11" lengthAdjust="spacingAndGlyphs" textLength="174" x="26" y="111.9189">addStudent(student : Student) : void</text><ellipse cx="17" cy="122.7539" fill="#84BE84" rx="3" ry="3" style="stroke: #038048; stroke-width: 1.0;"/><text fill="#000000" font-family="sans-serif" font-size="11" lengthAdjust="spacingAndGlyphs" textLength="98" x="26" y="125.7549">countStudents() : int</text><ellipse cx="17" cy="136.5898" fill="#84BE84" rx="3" ry="3" style="stroke: #038048; stroke-width: 1.0;"/><text fill="#000000" font-family="sans-serif" font-size="11" lengthAdjust="spacingAndGlyphs" textLength="240" x="26" y="139.5908">topScorers(course : String, n : int) : List&lt;Student&gt;</text><ellipse cx="17" cy="150.4258" fill="#84BE84" rx="3" ry="3" style="stroke: #038048; stroke-width: 1.0;"/><text fill="#000000" font-family="sans-serif" font-size="11" lengthAdjust="spacingAndGlyphs" textLength="180" x="26" y="153.4268">successfulStudents() : List&lt;Student&gt;</text><!--class Student--><rect fill="#FEFECE" filter="url(#f12yenykwnams0)" height="200.1953" id="Student" style="stroke: #A80036; stroke-width: 1.5;" width="268" x="307" y="8"/><ellipse cx="415.75" cy="24" fill="#ADD1B2" rx="11" ry="11" style="stroke: #A80036; stroke-width: 1.0;"/><path d="M417.75,20.5 Q417.9531,20 418.1875,19.75 Q418.4219,19.5 418.6875,19.5 Q419.1563,19.5 419.4531,19.7813 Q419.75,20.0625 419.75,20.7188 L419.75,22.2813 Q419.75,22.9375 419.4688,23.2188 Q419.1875,23.5 418.75,23.5 Q418.3594,23.5 418.1094,23.3281 Q417.8594,23.1563 417.75,22.7031 Q417.7031,22.3906 417.5313,22.2188 Q417.2188,21.8906 416.6563,21.6953 Q416.0938,21.5 415.5313,21.5 Q414.8281,21.5 414.2422,21.7813 Q413.6563,22.0625 413.2031,22.6875 Q412.75,23.3125 412.75,24.1719 L412.75,25.0938 Q412.75,26.125 413.5938,26.8125 Q414.4375,27.5 415.9375,27.5 Q416.8281,27.5 417.4531,27.2969 Q417.8125,27.1875 418.2188,26.8281 Q418.4844,26.625 418.625,26.5625 Q418.7656,26.5 418.9375,26.5 Q419.2656,26.5 419.5078,26.7578 Q419.75,27.0156 419.75,27.375 Q419.75,27.7188 419.4063,28.125 Q418.9063,28.7188 418.1094,29.0469 Q417.0625,29.5 415.7813,29.5 Q414.2813,29.5 413.0781,28.9063 Q412.1094,28.4375 411.4297,27.4219 Q410.75,26.4063 410.75,25.2031 L410.75,24.1094 Q410.75,22.8594 411.3516,21.7656 Q411.9531,20.6719 413.0078,20.0859 Q414.0625,19.5 415.25,19.5 Q415.9688,19.5 416.5938,19.75 Q417.2188,20 417.75,20.5 Z "/><text fill="#000000" font-family="sans-serif" font-size="12" lengthAdjust="spacingAndGlyphs" textLength="42" x="436.25" y="28.9102">Student</text><line style="stroke: #A80036; stroke-width: 1.5;" x1="308" x2="574" y1="40" y2="40"/><line style="stroke: #A80036; stroke-width: 1.5;" x1="308" x2="574" y1="48" y2="48"/><ellipse cx="318" cy="60.418" fill="#84BE84" rx="3" ry="3" style="stroke: #038048; stroke-width: 1.0;"/><text fill="#000000" font-family="sans-serif" font-size="11" lengthAdjust="spacingAndGlyphs" textLength="242" x="327" y="63.4189">Student(name : String, registrationNumber : String)</text><ellipse cx="318" cy="74.2539" fill="#84BE84" rx="3" ry="3" style="stroke: #038048; stroke-width: 1.0;"/><text fill="#000000" font-family="sans-serif" font-size="11" lengthAdjust="spacingAndGlyphs" textLength="206" x="327" y="77.2549">setScore(course : String, score : int) : void</text><ellipse cx="318" cy="88.0898" fill="#84BE84" rx="3" ry="3" style="stroke: #038048; stroke-width: 1.0;"/><text fill="#000000" font-family="sans-serif" font-size="11" lengthAdjust="spacingAndGlyphs" textLength="182" x="327" y="91.0908">getScore(course : String) : OptionalInt</text><ellipse cx="318" cy="101.9258" fill="#84BE84" rx="3" ry="3" style="stroke: #038048; stroke-width: 1.0;"/><text fill="#000000" font-family="sans-serif" font-size="11" lengthAdjust="spacingAndGlyphs" textLength="158" x="327" y="104.9268">averageScore() : OptionalDouble</text><ellipse cx="318" cy="115.7617" fill="#84BE84" rx="3" ry="3" style="stroke: #038048; stroke-width: 1.0;"/><text fill="#000000" font-family="sans-serif" font-size="11" lengthAdjust="spacingAndGlyphs" textLength="152" x="327" y="118.7627">bestCourse() : Optional&lt;String&gt;</text><ellipse cx="318" cy="129.5977" fill="#84BE84" rx="3" ry="3" style="stroke: #038048; stroke-width: 1.0;"/><text fill="#000000" font-family="sans-serif" font-size="11" lengthAdjust="spacingAndGlyphs" textLength="78" x="327" y="132.5986">bestScore() : int</text><ellipse cx="318" cy="143.4336" fill="#84BE84" rx="3" ry="3" style="stroke: #038048; stroke-width: 1.0;"/><text fill="#000000" font-family="sans-serif" font-size="11" lengthAdjust="spacingAndGlyphs" textLength="140" x="327" y="146.4346">failedCourses() : Set&lt;String&gt;</text><ellipse cx="318" cy="157.2695" fill="#84BE84" rx="3" ry="3" style="stroke: #038048; stroke-width: 1.0;"/><text fill="#000000" font-family="sans-serif" font-size="11" lengthAdjust="spacingAndGlyphs" textLength="118" x="327" y="160.2705">isSuccessful() : boolean</text><ellipse cx="318" cy="171.1055" fill="#84BE84" rx="3" ry="3" style="stroke: #038048; stroke-width: 1.0;"/><text fill="#000000" font-family="sans-serif" font-size="11" lengthAdjust="spacingAndGlyphs" textLength="156" x="327" y="174.1064">attendedCourses() : Set&lt;String&gt;</text><ellipse cx="318" cy="184.9414" fill="#84BE84" rx="3" ry="3" style="stroke: #038048; stroke-width: 1.0;"/><text fill="#000000" font-family="sans-serif" font-size="11" lengthAdjust="spacingAndGlyphs" textLength="87" x="327" y="187.9424">getName() : String</text><ellipse cx="318" cy="198.7773" fill="#84BE84" rx="3" ry="3" style="stroke: #038048; stroke-width: 1.0;"/><text fill="#000000" font-family="sans-serif" font-size="11" lengthAdjust="spacingAndGlyphs" textLength="154" x="327" y="201.7783">getRegistrationNumber() : String</text><!--link Classroom to Student--><path d="M285.13,108 C287.977,108 290.824,108 293.671,108 " fill="none" id="Classroom-Student" style="stroke: #A80036; stroke-width: 1.0;"/><polygon fill="#A80036" points="306.996,108,297.996,104,301.996,108,297.996,112,306.996,108" style="stroke: #A80036; stroke-width: 1.0;"/><line style="stroke: #A80036; stroke-width: 1.0;" x1="301.996" x2="293.996" y1="108" y2="108"/><polygon fill="#FFFFFF" points="272.01,108,278.01,112,284.01,108,278.01,104,272.01,108" style="stroke: #A80036; stroke-width: 1.0;"/><!--
@startuml

class Classroom {
    +addStudent(student : Student) : void
    +countStudents() : int
    +topScorers(course : String, n : int) : List<Student>
    +successfulStudents() : List<Student>
}

class Student {
    +Student(name : String, registrationNumber : String)
    +setScore(course : String, score : int) : void
    +getScore(course : String) : OptionalInt
    +averageScore() : OptionalDouble
    +bestCourse() : Optional<String>
    +bestScore() : int
    +failedCourses() : Set<String>
    +isSuccessful() : boolean
    +attendedCourses() : Set<String>
    +getName() : String
    +getRegistrationNumber() : String
}

Classroom o-> Student
@enduml

PlantUML version 1.2017.15(Mon Jul 03 18:45:34 CEST 2017)
(GPL source distribution)
Java Runtime: OpenJDK Runtime Environment
JVM: OpenJDK 64-Bit Server VM
Java Version: 1.8.0_152-release-915-b12
Operating System: Windows 10
OS Version: 10.0
Default Encoding: Cp1252
Language: en
Country: US
--></g></svg>