<?xml version="1.0" encoding="UTF-8" standalone="no"?><svg xmlns="http://www.w3.org/2000/svg" xmlns:xlink="http://www.w3.org/1999/xlink" contentScriptType="application/ecmascript" contentStyleType="text/css" height="285px" preserveAspectRatio="none" style="width:487px;height:285px;" version="1.1" viewBox="0 0 487 285" width="487px" zoomAndPan="magnify"><defs><filter height="300%" id="f15tetbfelgb9x" width="300%" x="-1" y="-1"><feGaussianBlur result="blurOut" stdDeviation="2.0"/><feColorMatrix in="blurOut" result="blurOut2" type="matrix" values="0 0 0 0 0 0 0 0 0 0 0 0 0 0 0 0 0 0 .4 0"/><feOffset dx="4.0" dy="4.0" in="blurOut2" result="blurOut3"/><feBlend in="SourceGraphic" in2="blurOut3" mode="normal"/></filter></defs><g><!--class Scoreable--><rect fill="#FEFECE" filter="url(#f15tetbfelgb9x)" height="103.3438" id="Scoreable" style="stroke: #A80036; stroke-width: 1.5;" width="145" x="159.5" y="8"/><ellipse cx="199.7" cy="24" fill="#B4A7E5" rx="11" ry="11" style="stroke: #A80036; stroke-width: 1.0;"/><path d="M200.7,21 L200.7,27 L202.7,27 L203.1844,27 L203.7,27.625 L203.7,28 L203.7,28.375 L203.1844,29 L202.7,29 L196.7,29 L196.2156,29 L195.7,28.375 L195.7,28 L195.7,27.625 L196.2156,27 L196.7,27 L198.7,27 L198.7,21 L196.7,21 L196.2156,21 L195.7,20.375 L195.7,20 L195.7,19.625 L196.2156,19 L196.7,19 L202.7,19 L203.1844,19 L203.7,19.625 L203.7,20 L203.7,20.375 L203.1844,21 L202.7,21 L200.7,21 Z "/><text fill="#000000" font-family="sans-serif" font-size="12" font-style="italic" lengthAdjust="spacingAndGlyphs" textLength="57" x="219.3" y="28.9102">Scoreable</text><line style="stroke: #A80036; stroke-width: 1.5;" x1="160.5" x2="303.5" y1="40" y2="40"/><line style="stroke: #A80036; stroke-width: 1.5;" x1="160.5" x2="303.5" y1="48" y2="48"/><ellipse cx="170.5" cy="60.418" fill="#84BE84" rx="3" ry="3" style="stroke: #038048; stroke-width: 1.0;"/><text fill="#000000" font-family="sans-serif" font-size="11" font-style="italic" lengthAdjust="spacingAndGlyphs" textLength="119" x="179.5" y="63.4189">averageScore() : double</text><ellipse cx="170.5" cy="74.2539" fill="#84BE84" rx="3" ry="3" style="stroke: #038048; stroke-width: 1.0;"/><text fill="#000000" font-family="sans-serif" font-size="11" font-style="italic" lengthAdjust="spacingAndGlyphs" textLength="76" x="179.5" y="77.2549">minScore() : int</text><ellipse cx="170.5" cy="88.0898" fill="#84BE84" rx="3" ry="3" style="stroke: #038048; stroke-width: 1.0;"/><text fill="#000000" font-family="sans-serif" font-size="11" font-style="italic" lengthAdjust="spacingAndGlyphs" textLength="79" x="179.5" y="91.0908">maxScore() : int</text><ellipse cx="170.5" cy="101.9258" fill="#84BE84" rx="3" ry="3" style="stroke: #038048; stroke-width: 1.0;"/><text fill="#000000" font-family="sans-serif" font-size="11" font-style="italic" lengthAdjust="spacingAndGlyphs" textLength="99" x="179.5" y="104.9268">countStudents() : int</text><!--class Classroom--><rect fill="#FEFECE" filter="url(#f15tetbfelgb9x)" height="61.8359" id="Classroom" style="stroke: #A80036; stroke-width: 1.5;" width="200" x="6" y="191.5"/><ellipse cx="70.75" cy="207.5" fill="#ADD1B2" rx="11" ry="11" style="stroke: #A80036; stroke-width: 1.0;"/><path d="M72.75,204 Q72.9531,203.5 73.1875,203.25 Q73.4219,203 73.6875,203 Q74.1563,203 74.4531,203.2813 Q74.75,203.5625 74.75,204.2188 L74.75,205.7813 Q74.75,206.4375 74.4688,206.7188 Q74.1875,207 73.75,207 Q73.3594,207 73.1094,206.8281 Q72.8594,206.6563 72.75,206.2031 Q72.7031,205.8906 72.5313,205.7188 Q72.2188,205.3906 71.6563,205.1953 Q71.0938,205 70.5313,205 Q69.8281,205 69.2422,205.2813 Q68.6563,205.5625 68.2031,206.1875 Q67.75,206.8125 67.75,207.6719 L67.75,208.5938 Q67.75,209.625 68.5938,210.3125 Q69.4375,211 70.9375,211 Q71.8281,211 72.4531,210.7969 Q72.8125,210.6875 73.2188,210.3281 Q73.4844,210.125 73.625,210.0625 Q73.7656,210 73.9375,210 Q74.2656,210 74.5078,210.2578 Q74.75,210.5156 74.75,210.875 Q74.75,211.2188 74.4063,211.625 Q73.9063,212.2188 73.1094,212.5469 Q72.0625,213 70.7813,213 Q69.2813,213 68.0781,212.4063 Q67.1094,211.9375 66.4297,210.9219 Q65.75,209.9063 65.75,208.7031 L65.75,207.6094 Q65.75,206.3594 66.3516,205.2656 Q66.9531,204.1719 68.0078,203.5859 Q69.0625,203 70.25,203 Q70.9688,203 71.5938,203.25 Q72.2188,203.5 72.75,204 Z "/><text fill="#000000" font-family="sans-serif" font-size="12" lengthAdjust="spacingAndGlyphs" textLength="62" x="91.25" y="212.4102">Classroom</text><line style="stroke: #A80036; stroke-width: 1.5;" x1="7" x2="205" y1="223.5" y2="223.5"/><line style="stroke: #A80036; stroke-width: 1.5;" x1="7" x2="205" y1="231.5" y2="231.5"/><ellipse cx="17" cy="243.918" fill="#84BE84" rx="3" ry="3" style="stroke: #038048; stroke-width: 1.0;"/><text fill="#000000" font-family="sans-serif" font-size="11" lengthAdjust="spacingAndGlyphs" textLength="174" x="26" y="246.9189">addStudent(student : Student) : void</text><!--class Student--><rect fill="#FEFECE" filter="url(#f15tetbfelgb9x)" height="103.3438" id="Student" style="stroke: #A80036; stroke-width: 1.5;" width="235" x="241.5" y="171"/><ellipse cx="333.75" cy="187" fill="#ADD1B2" rx="11" ry="11" style="stroke: #A80036; stroke-width: 1.0;"/><path d="M335.75,183.5 Q335.9531,183 336.1875,182.75 Q336.4219,182.5 336.6875,182.5 Q337.1563,182.5 337.4531,182.7813 Q337.75,183.0625 337.75,183.7188 L337.75,185.2813 Q337.75,185.9375 337.4688,186.2188 Q337.1875,186.5 336.75,186.5 Q336.3594,186.5 336.1094,186.3281 Q335.8594,186.1563 335.75,185.7031 Q335.7031,185.3906 335.5313,185.2188 Q335.2188,184.8906 334.6563,184.6953 Q334.0938,184.5 333.5313,184.5 Q332.8281,184.5 332.2422,184.7813 Q331.6563,185.0625 331.2031,185.6875 Q330.75,186.3125 330.75,187.1719 L330.75,188.0938 Q330.75,189.125 331.5938,189.8125 Q332.4375,190.5 333.9375,190.5 Q334.8281,190.5 335.4531,190.2969 Q335.8125,190.1875 336.2188,189.8281 Q336.4844,189.625 336.625,189.5625 Q336.7656,189.5 336.9375,189.5 Q337.2656,189.5 337.5078,189.7578 Q337.75,190.0156 337.75,190.375 Q337.75,190.7188 337.4063,191.125 Q336.9063,191.7188 336.1094,192.0469 Q335.0625,192.5 333.7813,192.5 Q332.2813,192.5 331.0781,191.9063 Q330.1094,191.4375 329.4297,190.4219 Q328.75,189.4063 328.75,188.2031 L328.75,187.1094 Q328.75,185.8594 329.3516,184.7656 Q329.9531,183.6719 331.0078,183.0859 Q332.0625,182.5 333.25,182.5 Q333.9688,182.5 334.5938,182.75 Q335.2188,183 335.75,183.5 Z "/><text fill="#000000" font-family="sans-serif" font-size="12" lengthAdjust="spacingAndGlyphs" textLength="42" x="354.25" y="191.9102">Student</text><line style="stroke: #A80036; stroke-width: 1.5;" x1="242.5" x2="475.5" y1="203" y2="203"/><rect fill="none" height="6" style="stroke: #C82930; stroke-width: 1.0;" width="6" x="249.5" y="212.418"/><text fill="#000000" font-family="sans-serif" font-size="11" lengthAdjust="spacingAndGlyphs" textLength="63" x="261.5" y="218.4189">name : String</text><rect fill="none" height="6" style="stroke: #C82930; stroke-width: 1.0;" width="6" x="249.5" y="226.2539"/><text fill="#000000" font-family="sans-serif" font-size="11" lengthAdjust="spacingAndGlyphs" textLength="128" x="261.5" y="232.2549">registrationNumber : String</text><rect fill="none" height="6" style="stroke: #C82930; stroke-width: 1.0;" width="6" x="249.5" y="240.0898"/><text fill="#000000" font-family="sans-serif" font-size="11" lengthAdjust="spacingAndGlyphs" textLength="190" x="261.5" y="246.0908">scoresByCourse : Map&lt;String, Integer&gt;</text><line style="stroke: #A80036; stroke-width: 1.5;" x1="242.5" x2="475.5" y1="252.5078" y2="252.5078"/><ellipse cx="252.5" cy="264.9258" fill="#84BE84" rx="3" ry="3" style="stroke: #038048; stroke-width: 1.0;"/><text fill="#000000" font-family="sans-serif" font-size="11" lengthAdjust="spacingAndGlyphs" textLength="209" x="261.5" y="267.9268">addScore(course : String, score : int) : void</text><!--link Scoreable to Classroom--><path d="M179.78,127.225 C162.436,149.387 143.968,172.985 129.848,191.0279 " fill="none" id="Scoreable-Classroom" style="stroke: #A80036; stroke-width: 1.0;"/><polygon fill="none" points="174.294,122.877,192.133,111.441,185.319,131.506,174.294,122.877" style="stroke: #A80036; stroke-width: 1.0;"/><!--link Scoreable to Student--><path d="M284.831,127.475 C296.286,141.997 308.218,157.123 319.078,170.89 " fill="none" id="Scoreable-Student" style="stroke: #A80036; stroke-width: 1.0;"/><polygon fill="none" points="279.074,131.479,272.184,111.441,290.066,122.809,279.074,131.479" style="stroke: #A80036; stroke-width: 1.0;"/><!--link Classroom to Student--><path d="M219.395,222.5 C222.235,222.5 225.074,222.5 227.914,222.5 " fill="none" id="Classroom-Student" style="stroke: #A80036; stroke-width: 1.0;"/><polygon fill="#A80036" points="241.202,222.5,232.202,218.5,236.202,222.5,232.202,226.5,241.202,222.5" style="stroke: #A80036; stroke-width: 1.0;"/><line style="stroke: #A80036; stroke-width: 1.0;" x1="236.202" x2="228.2025" y1="222.5" y2="222.4999"/><polygon fill="#FFFFFF" points="206.311,222.5,212.311,226.5,218.311,222.5,212.311,218.5,206.311,222.5" style="stroke: #A80036; stroke-width: 1.0;"/><!--
@startuml

interface Scoreable {
    {abstract} +averageScore() : double
    {abstract} +minScore() : int
    {abstract} +maxScore() : int
    {abstract} +countStudents() : int
}

class Classroom {
    +addStudent(student : Student) : void
}

class Student {
    -name : String
    -registrationNumber : String
    -scoresByCourse : Map<String, Integer>
    +addScore(course : String, score : int) : void
}

Scoreable <|- - Classroom
Scoreable <|- - Student
Classroom o-> Student
@enduml

PlantUML version 1.2017.15(Mon Jul 03 18:45:34 CEST 2017)
(GPL source distribution)
Java Runtime: OpenJDK Runtime Environment
JVM: OpenJDK 64-Bit Server VM
Java Version: 1.8.0_152-release-915-b12
Operating System: Windows 10
OS Version: 10.0
Default Encoding: Cp1252
Language: en
Country: US
--></g></svg>